<svg width="327" height="320" viewBox="0 0 327 320" fill="none" xmlns="http://www.w3.org/2000/svg">
<rect width="327" height="320" rx="20" fill="#EFECE6"/>
<path opacity="0.2" d="M165.964 48V47.713V47.713V48ZM277.631 159.667H277.918V159.667H277.631ZM165.964 271.334V271.621V271.621V271.334ZM54.2968 159.667H54.0097V159.667H54.2968ZM165.964 48V47.713C165.586 47.713 165.208 47.7148 164.831 47.7186L164.834 48.0056L164.837 48.2926C165.212 48.2889 165.588 48.287 165.964 48.287V48ZM160.343 48.139L160.328 47.8523C159.574 47.8897 158.822 47.9346 158.071 47.9868L158.091 48.2732L158.111 48.5596C158.858 48.5076 159.606 48.4629 160.357 48.4257L160.343 48.139ZM153.615 48.6751L153.583 48.3898C152.834 48.4722 152.087 48.562 151.342 48.6592L151.379 48.9438L151.416 49.2285C152.157 49.1318 152.901 49.0424 153.646 48.9604L153.615 48.6751ZM146.933 49.6153L146.884 49.3324C146.142 49.4597 145.403 49.5943 144.667 49.7362L144.721 50.018L144.775 50.2999C145.508 50.1588 146.243 50.0248 146.981 49.8982L146.933 49.6153ZM140.322 50.9581L140.256 50.6787C139.525 50.8505 138.796 51.0295 138.071 51.2156L138.142 51.4937L138.213 51.7717C138.935 51.5866 139.66 51.4085 140.387 51.2375L140.322 50.9581ZM133.806 52.6998L133.724 52.4249C133.003 52.6412 132.285 52.8647 131.571 53.0951L131.659 53.3683L131.747 53.6415C132.458 53.4122 133.172 53.19 133.889 52.9747L133.806 52.6998ZM127.409 54.8346L127.31 54.5652C126.603 54.8253 125.899 55.0923 125.199 55.3662L125.304 55.6335L125.408 55.9008C126.105 55.6284 126.805 55.3628 127.508 55.104L127.409 54.8346ZM121.15 57.3561L121.034 57.0933C120.346 57.3954 119.66 57.7044 118.979 58.02L119.099 58.2804L119.22 58.5409C119.898 58.227 120.58 57.9196 121.265 57.619L121.15 57.3561ZM115.057 60.2524L114.926 59.997C114.257 60.3401 113.592 60.6898 112.931 61.0459L113.068 61.2986L113.204 61.5513C113.861 61.197 114.523 60.8492 115.188 60.5078L115.057 60.2524ZM109.151 63.5121L109.005 63.2651C108.358 63.6481 107.715 64.0376 107.077 64.4332L107.228 64.6772L107.379 64.9212C108.014 64.5276 108.654 64.1402 109.298 63.7591L109.151 63.5121ZM103.454 67.1224L103.293 66.8847C102.67 67.3063 102.051 67.734 101.437 68.1677L101.603 68.4022L101.769 68.6366C102.38 68.2051 102.995 67.7796 103.615 67.3601L103.454 67.1224ZM97.9827 71.0705L97.8078 70.8429C97.2117 71.301 96.6203 71.7649 96.0338 72.2347L96.2132 72.4587L96.3926 72.6828C96.9762 72.2154 97.5645 71.7539 98.1576 71.2981L97.9827 71.0705ZM92.7596 75.34L92.5713 75.1234C92.004 75.6163 91.4416 76.1149 90.8844 76.6189L91.0769 76.8318L91.2695 77.0447C91.8239 76.5432 92.3834 76.0472 92.9478 75.5567L92.7596 75.34ZM87.8024 79.9154L87.6015 79.7104C87.0647 80.2365 86.5333 80.768 86.0072 81.3047L86.2122 81.5056L86.4172 81.7066C86.9406 81.1726 87.4693 80.6438 88.0033 80.1204L87.8024 79.9154ZM83.1286 84.7802L82.9157 84.5876C82.4116 85.1448 81.9131 85.7072 81.4201 86.2745L81.6368 86.4628L81.8535 86.6511C82.3439 86.0866 82.8399 85.5271 83.3415 84.9727L83.1286 84.7802ZM78.7555 89.9164L78.5314 89.737C78.0617 90.3235 77.5977 90.9149 77.1397 91.511L77.3673 91.6859L77.5949 91.8608C78.0506 91.2678 78.5122 90.6794 78.9795 90.0959L78.7555 89.9164ZM74.6989 95.3063L74.4645 95.1407C74.0308 95.7546 73.603 96.3731 73.1814 96.9961L73.4192 97.1569L73.6569 97.3178C74.0763 96.6981 74.5019 96.0827 74.9334 95.472L74.6989 95.3063ZM70.974 100.931L70.73 100.78C70.3343 101.419 69.9449 102.061 69.5618 102.708L69.8088 102.855L70.0558 103.001C70.437 102.357 70.8244 101.718 71.218 101.082L70.974 100.931ZM67.5953 106.771L67.3426 106.635C66.9866 107.295 66.6369 107.96 66.2938 108.629L66.5492 108.76L66.8046 108.891C67.1459 108.226 67.4938 107.564 67.848 106.907L67.5953 106.771ZM64.5772 112.803L64.3167 112.682C64.0012 113.364 63.6922 114.049 63.39 114.738L63.6529 114.853L63.9158 114.968C64.2164 114.283 64.5237 113.601 64.8377 112.923L64.5772 112.803ZM61.9303 119.007L61.663 118.902C61.3891 119.603 61.1221 120.306 60.862 121.013L61.1314 121.112L61.4008 121.211C61.6596 120.508 61.9252 119.808 62.1976 119.112L61.9303 119.007ZM59.665 125.362L59.3919 125.274C59.1614 125.989 58.938 126.706 58.7217 127.427L58.9966 127.509L59.2715 127.592C59.4868 126.875 59.709 126.161 59.9382 125.45L59.665 125.362ZM57.7904 131.845L57.5124 131.774C57.3263 132.499 57.1473 133.228 56.9755 133.959L57.2549 134.025L57.5343 134.091C57.7053 133.363 57.8834 132.638 58.0685 131.916L57.7904 131.845ZM56.3148 138.424L56.0329 138.37C55.8911 139.107 55.7565 139.846 55.6291 140.587L55.9121 140.636L56.195 140.684C56.3216 139.947 56.4556 139.211 56.5967 138.479L56.3148 138.424ZM55.2406 145.082L54.956 145.045C54.8588 145.79 54.769 146.537 54.6866 147.287L54.9719 147.318L55.2572 147.349C55.3392 146.604 55.4286 145.86 55.5253 145.119L55.2406 145.082ZM54.57 151.795L54.2836 151.775C54.2314 152.525 54.1865 153.277 54.1491 154.032L54.4358 154.046L54.7225 154.06C54.7597 153.31 54.8044 152.561 54.8563 151.815L54.57 151.795ZM54.3024 158.537L54.0154 158.535C54.0116 158.912 54.0097 159.289 54.0097 159.667H54.2968H54.5838C54.5838 159.291 54.5857 158.915 54.5894 158.54L54.3024 158.537ZM54.2968 159.667H54.0097C54.0098 160.045 54.0116 160.422 54.0154 160.8L54.3024 160.797L54.5894 160.794C54.5857 160.419 54.5838 160.043 54.5838 159.667H54.2968ZM54.4358 165.288L54.1491 165.302C54.1865 166.057 54.2314 166.809 54.2837 167.559L54.57 167.539L54.8564 167.519C54.8044 166.773 54.7597 166.024 54.7225 165.274L54.4358 165.288ZM54.9719 172.016L54.6866 172.047C54.769 172.797 54.8589 173.544 54.956 174.289L55.2407 174.252L55.5253 174.215C55.4287 173.474 55.3393 172.73 55.2573 171.985L54.9719 172.016ZM55.9121 178.698L55.6292 178.747C55.7565 179.488 55.8912 180.227 56.033 180.964L56.3149 180.91L56.5967 180.855C56.4556 180.123 56.3217 179.387 56.195 178.65L55.9121 178.698ZM57.255 185.309L56.9755 185.375C57.1474 186.106 57.3264 186.835 57.5125 187.56L57.7905 187.489L58.0686 187.418C57.8834 186.696 57.7054 185.971 57.5344 185.243L57.255 185.309ZM58.9967 191.825L58.7218 191.907C58.9381 192.628 59.1615 193.345 59.3919 194.06L59.6651 193.972L59.9383 193.884C59.7091 193.173 59.4869 192.459 59.2716 191.742L58.9967 191.825ZM61.1315 198.222L60.8621 198.321C61.1222 199.028 61.3892 199.731 61.6631 200.432L61.9304 200.327L62.1977 200.222C61.9253 199.526 61.6597 198.826 61.4009 198.123L61.1315 198.222ZM63.653 204.481L63.3901 204.596C63.6923 205.285 64.0013 205.97 64.3168 206.652L64.5773 206.531L64.8378 206.411C64.5238 205.733 64.2165 205.051 63.9159 204.366L63.653 204.481ZM66.5493 210.574L66.2939 210.705C66.637 211.374 66.9867 212.038 67.3428 212.699L67.5954 212.563L67.8481 212.427C67.4939 211.77 67.146 211.108 66.8047 210.443L66.5493 210.574ZM69.809 216.479L69.562 216.626C69.945 217.273 70.3344 217.915 70.7301 218.554L70.9741 218.403L71.2181 218.252C70.8245 217.616 70.4371 216.977 70.056 216.333L69.809 216.479ZM73.4193 222.177L73.1816 222.338C73.6032 222.961 74.0309 223.579 74.4646 224.193L74.699 224.028L74.9335 223.862C74.502 223.251 74.0764 222.636 73.657 222.016L73.4193 222.177ZM77.3674 227.648L77.1398 227.823C77.5979 228.419 78.0618 229.01 78.5315 229.597L78.7556 229.417L78.9797 229.238C78.5123 228.655 78.0507 228.066 77.595 227.473L77.3674 227.648ZM81.6369 232.871L81.4202 233.059C81.9132 233.627 82.4117 234.189 82.9158 234.746L83.1287 234.554L83.3416 234.361C82.84 233.807 82.344 233.247 81.8536 232.683L81.6369 232.871ZM86.2123 237.828L86.0073 238.029C86.5334 238.566 87.0648 239.097 87.6016 239.624L87.8025 239.419L88.0034 239.214C87.4694 238.69 86.9407 238.161 86.4173 237.627L86.2123 237.828ZM91.077 242.502L90.8844 242.715C91.4417 243.219 92.004 243.718 92.5714 244.211L92.7597 243.994L92.9479 243.777C92.3835 243.287 91.824 242.791 91.2696 242.289L91.077 242.502ZM96.2133 246.875L96.0338 247.099C96.6204 247.569 97.2118 248.033 97.8079 248.491L97.9828 248.263L98.1577 248.036C97.5646 247.58 96.9763 247.118 96.3927 246.651L96.2133 246.875ZM101.603 250.932L101.438 251.166C102.051 251.6 102.67 252.028 103.293 252.449L103.454 252.212L103.615 251.974C102.995 251.554 102.38 251.129 101.769 250.697L101.603 250.932ZM107.228 254.657L107.077 254.901C107.715 255.296 108.358 255.686 109.005 256.069L109.151 255.822L109.298 255.575C108.654 255.194 108.014 254.806 107.379 254.413L107.228 254.657ZM113.068 258.035L112.931 258.288C113.592 258.644 114.257 258.994 114.926 259.337L115.057 259.082L115.188 258.826C114.523 258.485 113.861 258.137 113.204 257.783L113.068 258.035ZM119.099 261.054L118.979 261.314C119.66 261.63 120.346 261.939 121.035 262.241L121.15 261.978L121.265 261.715C120.58 261.414 119.898 261.107 119.22 260.793L119.099 261.054ZM125.304 263.7L125.199 263.968C125.899 264.242 126.603 264.509 127.31 264.769L127.409 264.499L127.508 264.23C126.805 263.971 126.105 263.706 125.408 263.433L125.304 263.7ZM131.659 265.966L131.571 266.239C132.285 266.469 133.003 266.693 133.724 266.909L133.806 266.634L133.889 266.359C133.172 266.144 132.458 265.922 131.747 265.693L131.659 265.966ZM138.142 267.84L138.071 268.118C138.796 268.304 139.525 268.483 140.256 268.655L140.322 268.376L140.387 268.096C139.66 267.925 138.935 267.747 138.213 267.562L138.142 267.84ZM144.721 269.316L144.667 269.598C145.403 269.74 146.142 269.874 146.884 270.002L146.933 269.719L146.981 269.436C146.243 269.309 145.508 269.175 144.775 269.034L144.721 269.316ZM151.379 270.39L151.342 270.675C152.087 270.772 152.834 270.862 153.583 270.944L153.615 270.659L153.646 270.374C152.901 270.292 152.157 270.202 151.416 270.105L151.379 270.39ZM158.091 271.061L158.072 271.347C158.822 271.399 159.574 271.444 160.328 271.482L160.343 271.195L160.357 270.908C159.606 270.871 158.858 270.826 158.111 270.774L158.091 271.061ZM164.834 271.328L164.831 271.615C165.208 271.619 165.586 271.621 165.964 271.621V271.334V271.047C165.588 271.047 165.212 271.045 164.837 271.041L164.834 271.328ZM165.964 271.334V271.621C166.342 271.621 166.719 271.619 167.096 271.615L167.093 271.328L167.091 271.041C166.715 271.045 166.34 271.047 165.964 271.047V271.334ZM171.585 271.195L171.599 271.482C172.353 271.444 173.106 271.399 173.856 271.347L173.836 271.061L173.816 270.774C173.07 270.826 172.321 270.871 171.571 270.908L171.585 271.195ZM178.313 270.659L178.344 270.944C179.094 270.862 179.841 270.772 180.586 270.675L180.549 270.39L180.511 270.105C179.77 270.202 179.027 270.292 178.281 270.374L178.313 270.659ZM184.995 269.719L185.044 270.002C185.785 269.874 186.524 269.74 187.261 269.598L187.206 269.316L187.152 269.034C186.419 269.175 185.684 269.309 184.946 269.436L184.995 269.719ZM191.606 268.376L191.672 268.655C192.403 268.483 193.131 268.304 193.857 268.118L193.786 267.84L193.714 267.562C192.992 267.747 192.268 267.925 191.54 268.096L191.606 268.376ZM198.121 266.634L198.204 266.909C198.925 266.693 199.642 266.469 200.357 266.239L200.269 265.966L200.18 265.692C199.47 265.922 198.756 266.144 198.039 266.359L198.121 266.634ZM204.519 264.499L204.618 264.769C205.325 264.509 206.028 264.242 206.728 263.968L206.624 263.7L206.519 263.433C205.823 263.706 205.123 263.971 204.419 264.23L204.519 264.499ZM210.778 261.978L210.893 262.241C211.582 261.938 212.267 261.63 212.949 261.314L212.828 261.053L212.708 260.793C212.03 261.107 211.348 261.414 210.662 261.715L210.778 261.978ZM216.871 259.081L217.002 259.337C217.67 258.994 218.335 258.644 218.996 258.288L218.86 258.035L218.724 257.783C218.066 258.137 217.405 258.485 216.74 258.826L216.871 259.081ZM222.776 255.822L222.922 256.069C223.569 255.686 224.212 255.296 224.851 254.901L224.699 254.657L224.548 254.413C223.913 254.806 223.274 255.194 222.63 255.575L222.776 255.822ZM228.474 252.212L228.635 252.449C229.258 252.028 229.876 251.6 230.49 251.166L230.324 250.932L230.159 250.697C229.548 251.129 228.933 251.554 228.313 251.974L228.474 252.212ZM233.945 248.263L234.12 248.491C234.716 248.033 235.307 247.569 235.894 247.099L235.714 246.875L235.535 246.651C234.951 247.118 234.363 247.58 233.77 248.036L233.945 248.263ZM239.168 243.994L239.356 244.211C239.924 243.718 240.486 243.219 241.043 242.715L240.851 242.502L240.658 242.289C240.104 242.791 239.544 243.287 238.98 243.777L239.168 243.994ZM244.125 239.418L244.326 239.623C244.863 239.097 245.394 238.566 245.92 238.029L245.715 237.828L245.51 237.627C244.987 238.161 244.458 238.69 243.924 239.213L244.125 239.418ZM248.799 234.554L249.012 234.746C249.516 234.189 250.014 233.627 250.507 233.059L250.291 232.871L250.074 232.683C249.584 233.247 249.088 233.807 248.586 234.361L248.799 234.554ZM253.172 229.417L253.396 229.597C253.866 229.01 254.33 228.419 254.788 227.823L254.56 227.648L254.333 227.473C253.877 228.066 253.415 228.654 252.948 229.238L253.172 229.417ZM257.229 224.028L257.463 224.193C257.897 223.579 258.324 222.961 258.746 222.338L258.508 222.177L258.271 222.016C257.851 222.636 257.426 223.251 256.994 223.862L257.229 224.028ZM260.953 218.403L261.197 218.554C261.593 217.915 261.983 217.273 262.366 216.626L262.119 216.479L261.872 216.333C261.49 216.977 261.103 217.616 260.709 218.251L260.953 218.403ZM264.332 212.563L264.585 212.699C264.941 212.038 265.291 211.374 265.634 210.705L265.378 210.574L265.123 210.443C264.782 211.108 264.434 211.769 264.079 212.427L264.332 212.563ZM267.35 206.531L267.611 206.652C267.926 205.97 268.235 205.285 268.537 204.596L268.275 204.481L268.012 204.366C267.711 205.051 267.404 205.733 267.09 206.411L267.35 206.531ZM269.997 200.327L270.264 200.432C270.538 199.731 270.805 199.028 271.065 198.321L270.796 198.222L270.527 198.123C270.268 198.826 270.002 199.526 269.73 200.222L269.997 200.327ZM272.262 193.972L272.536 194.06C272.766 193.345 272.989 192.628 273.206 191.907L272.931 191.825L272.656 191.742C272.441 192.459 272.218 193.173 271.989 193.884L272.262 193.972ZM274.137 187.489L274.415 187.56C274.601 186.835 274.78 186.106 274.952 185.375L274.673 185.309L274.393 185.243C274.222 185.971 274.044 186.696 273.859 187.418L274.137 187.489ZM275.613 180.91L275.895 180.964C276.036 180.227 276.171 179.488 276.298 178.747L276.015 178.698L275.733 178.65C275.606 179.387 275.472 180.123 275.331 180.855L275.613 180.91ZM276.687 174.252L276.972 174.289C277.069 173.544 277.159 172.797 277.241 172.047L276.956 172.016L276.67 171.985C276.588 172.73 276.499 173.474 276.402 174.215L276.687 174.252ZM277.358 167.539L277.644 167.559C277.696 166.809 277.741 166.057 277.778 165.302L277.492 165.288L277.205 165.274C277.168 166.024 277.123 166.773 277.071 167.519L277.358 167.539ZM277.625 160.797L277.912 160.799C277.916 160.422 277.918 160.045 277.918 159.667H277.631H277.344C277.344 160.043 277.342 160.419 277.338 160.794L277.625 160.797ZM277.631 159.667H277.918C277.918 159.289 277.916 158.912 277.912 158.534L277.625 158.537L277.338 158.54C277.342 158.915 277.344 159.291 277.344 159.667H277.631ZM277.492 154.046L277.778 154.032C277.741 153.277 277.696 152.525 277.644 151.775L277.358 151.795L277.071 151.815C277.123 152.561 277.168 153.31 277.205 154.06L277.492 154.046ZM276.956 147.318L277.241 147.287C277.159 146.537 277.069 145.79 276.972 145.045L276.687 145.082L276.402 145.119C276.499 145.86 276.588 146.604 276.67 147.349L276.956 147.318ZM276.016 140.636L276.298 140.587C276.171 139.846 276.036 139.107 275.895 138.37L275.613 138.424L275.331 138.479C275.472 139.211 275.606 139.947 275.733 140.684L276.016 140.636ZM274.673 134.025L274.952 133.959C274.78 133.228 274.601 132.499 274.415 131.774L274.137 131.845L273.859 131.916C274.044 132.638 274.222 133.363 274.393 134.091L274.673 134.025ZM272.931 127.509L273.206 127.427C272.99 126.706 272.766 125.989 272.536 125.274L272.263 125.362L271.989 125.45C272.219 126.161 272.441 126.875 272.656 127.592L272.931 127.509ZM270.796 121.112L271.066 121.013C270.805 120.306 270.538 119.603 270.265 118.902L269.997 119.007L269.73 119.112C270.002 119.808 270.268 120.508 270.527 121.211L270.796 121.112ZM268.275 114.853L268.538 114.738C268.235 114.049 267.926 113.364 267.611 112.682L267.35 112.803L267.09 112.923C267.404 113.601 267.711 114.283 268.012 114.968L268.275 114.853ZM265.378 108.76L265.634 108.629C265.291 107.96 264.941 107.295 264.585 106.635L264.332 106.771L264.08 106.907C264.434 107.564 264.782 108.226 265.123 108.891L265.378 108.76ZM262.119 102.855L262.366 102.708C261.983 102.061 261.593 101.419 261.198 100.78L260.954 100.931L260.71 101.082C261.103 101.718 261.491 102.357 261.872 103.001L262.119 102.855ZM258.508 97.157L258.746 96.9961C258.324 96.3731 257.897 95.7546 257.463 95.1407L257.229 95.3063L256.994 95.472C257.426 96.0828 257.851 96.6981 258.271 97.3178L258.508 97.157ZM254.56 91.6859L254.788 91.511C254.33 90.9149 253.866 90.3236 253.396 89.737L253.172 89.9165L252.948 90.0959C253.415 90.6794 253.877 91.2678 254.333 91.8609L254.56 91.6859ZM250.291 86.4628L250.507 86.2746C250.014 85.7072 249.516 85.1449 249.012 84.5876L248.799 84.7802L248.586 84.9728C249.088 85.5272 249.584 86.0866 250.074 86.6511L250.291 86.4628ZM245.715 81.5056L245.92 81.3047C245.394 80.768 244.863 80.2365 244.326 79.7104L244.125 79.9154L243.924 80.1204C244.458 80.6438 244.987 81.1726 245.51 81.7066L245.715 81.5056ZM240.851 76.8318L241.043 76.619C240.486 76.1149 239.924 75.6163 239.356 75.1234L239.168 75.3401L238.98 75.5567C239.544 76.0472 240.104 76.5432 240.658 77.0447L240.851 76.8318ZM235.714 72.4587L235.894 72.2347C235.307 71.765 234.716 71.301 234.12 70.8429L233.945 71.0705L233.77 71.2981C234.363 71.7539 234.951 72.2155 235.535 72.6828L235.714 72.4587ZM230.324 68.4022L230.49 68.1677C229.876 67.734 229.258 67.3063 228.635 66.8847L228.474 67.1224L228.313 67.3601C228.933 67.7796 229.548 68.2051 230.159 68.6366L230.324 68.4022ZM224.7 64.6772L224.851 64.4332C224.212 64.0376 223.569 63.6482 222.922 63.2651L222.776 63.5121L222.63 63.7591C223.274 64.1402 223.913 64.5276 224.548 64.9212L224.7 64.6772ZM218.86 61.2986L218.996 61.0459C218.335 60.6898 217.67 60.3402 217.002 59.9971L216.871 60.2525L216.74 60.5079C217.405 60.8492 218.066 61.197 218.724 61.5513L218.86 61.2986ZM212.828 58.2805L212.949 58.02C212.267 57.7044 211.582 57.3955 210.893 57.0933L210.778 57.3562L210.662 57.619C211.348 57.9197 212.03 58.227 212.708 58.541L212.828 58.2805ZM206.624 55.6335L206.728 55.3662C206.028 55.0924 205.325 54.8254 204.618 54.5653L204.519 54.8347L204.419 55.1041C205.123 55.3628 205.823 55.6284 206.519 55.9009L206.624 55.6335ZM200.269 53.3683L200.357 53.0951C199.642 52.8647 198.925 52.6413 198.204 52.4249L198.121 52.6998L198.039 52.9748C198.756 53.19 199.47 53.4123 200.18 53.6415L200.269 53.3683ZM193.786 51.4937L193.857 51.2156C193.131 51.0295 192.403 50.8505 191.671 50.6787L191.606 50.9581L191.54 51.2376C192.268 51.4085 192.992 51.5866 193.714 51.7717L193.786 51.4937ZM187.206 50.018L187.261 49.7362C186.524 49.5943 185.785 49.4597 185.044 49.3324L184.995 49.6153L184.946 49.8982C185.684 50.0249 186.419 50.1588 187.152 50.2999L187.206 50.018ZM180.548 48.9439L180.586 48.6592C179.841 48.5621 179.094 48.4722 178.344 48.3898L178.313 48.6751L178.281 48.9604C179.027 49.0424 179.77 49.1318 180.511 49.2285L180.548 48.9439ZM173.836 48.2732L173.856 47.9868C173.106 47.9346 172.353 47.8897 171.599 47.8523L171.585 48.139L171.571 48.4257C172.321 48.4629 173.07 48.5076 173.816 48.5596L173.836 48.2732ZM167.093 48.0056L167.096 47.7186C166.719 47.7148 166.342 47.713 165.964 47.713V48V48.287C166.34 48.287 166.715 48.2889 167.091 48.2926L167.093 48.0056Z" fill="black"/>
<rect x="229.237" y="123.677" width="71.7623" height="71.7623" rx="35.8811" fill="#212121"/>
<rect x="229.237" y="123.677" width="71.7623" height="71.7623" rx="35.8811" fill="url(#paint0_linear_1_664)" fill-opacity="0.3"/>
<rect x="229.524" y="123.964" width="71.1882" height="71.1882" rx="35.5941" stroke="url(#paint1_linear_1_664)" stroke-opacity="0.6" stroke-width="0.574098"/>
<mask id="mask0_1_664" style="mask-type:alpha" maskUnits="userSpaceOnUse" x="251" y="145" width="28" height="28">
<path d="M264.884 145.927C272.279 145.927 278.28 151.928 278.28 159.323C278.28 166.717 272.279 172.718 264.884 172.718C257.49 172.718 251.489 166.717 251.489 159.323C251.489 151.928 257.49 145.927 264.884 145.927ZM273.31 153.013C272.788 152.491 271.944 152.491 271.421 153.013L262.206 162.23L258.334 158.372C257.811 157.849 256.967 157.849 256.445 158.372C256.194 158.622 256.053 158.962 256.053 159.316C256.053 159.67 256.194 160.01 256.445 160.26L261.254 165.07C261.777 165.592 262.634 165.592 263.143 165.07L273.31 154.902C273.832 154.379 273.833 153.536 273.31 153.013Z" fill="black"/>
</mask>
<g mask="url(#mask0_1_664)">
<rect x="248.81" y="143.248" width="32.1495" height="32.1495" fill="#BF78C8"/>
</g>
<rect x="126.161" y="123.677" width="71.7623" height="71.7623" rx="35.8811" fill="#212121"/>
<rect x="126.161" y="123.677" width="71.7623" height="71.7623" rx="35.8811" fill="url(#paint2_linear_1_664)" fill-opacity="0.3"/>
<rect x="126.448" y="123.964" width="71.1882" height="71.1882" rx="35.5941" stroke="url(#paint3_linear_1_664)" stroke-opacity="0.6" stroke-width="0.574098"/>
<mask id="mask1_1_664" style="mask-type:alpha" maskUnits="userSpaceOnUse" x="148" y="146" width="28" height="28">
<path d="M162.2 146.209C169.594 146.209 175.595 152.211 175.595 159.605C175.595 166.999 169.594 173 162.2 173C154.805 173 148.804 166.999 148.804 159.605C148.804 152.211 154.805 146.21 162.2 146.209ZM162.307 148.888C161.329 148.888 160.525 149.693 160.525 150.67V151.474C158.221 151.97 156.359 153.47 156.359 155.774C156.359 158.52 158.636 159.886 161.958 160.69C164.946 161.4 165.536 162.445 165.536 163.557C165.535 164.374 164.946 165.687 162.321 165.687C160.365 165.687 159.347 164.99 158.958 163.986C158.771 163.517 158.368 163.182 157.872 163.182H157.551C156.748 163.182 156.172 163.999 156.48 164.736C157.15 166.383 158.731 167.361 160.512 167.736V168.54C160.512 169.517 161.316 170.322 162.293 170.322H162.307C163.285 170.322 164.088 169.517 164.088 168.54V167.763C166.419 167.321 168.255 165.981 168.282 163.53C168.282 160.154 165.388 158.989 162.682 158.292C159.976 157.596 159.105 156.859 159.105 155.734C159.105 154.448 160.311 153.537 162.321 153.537C164.008 153.537 164.852 154.193 165.161 155.211C165.295 155.694 165.696 156.042 166.192 156.042H166.539C167.33 156.042 167.893 155.265 167.625 154.528C167.116 153.108 165.95 151.956 164.102 151.5V150.67C164.102 149.693 163.298 148.888 162.321 148.888H162.307Z" fill="black"/>
</mask>
<g mask="url(#mask1_1_664)">
<rect x="146.125" y="143.53" width="32.1495" height="32.1495" fill="white"/>
</g>
<rect x="27" y="123.677" width="71.7623" height="71.7623" rx="35.8811" fill="#212121"/>
<rect x="27" y="123.677" width="71.7623" height="71.7623" rx="35.8811" fill="url(#paint4_linear_1_664)" fill-opacity="0.3"/>
<rect x="27.287" y="123.964" width="71.1882" height="71.1882" rx="35.5941" stroke="url(#paint5_linear_1_664)" stroke-opacity="0.6" stroke-width="0.574098"/>
<mask id="mask2_1_664" style="mask-type:alpha" maskUnits="userSpaceOnUse" x="51" y="148" width="23" height="23">
<path d="M62.6197 162.346C66.1964 162.346 73.3355 164.141 73.3355 167.704V169.044C73.3353 169.78 72.7331 170.383 71.9966 170.383H53.2427C52.5061 170.383 51.9031 169.781 51.9029 169.044V167.704C51.9029 164.141 59.043 162.346 62.6197 162.346ZM62.6197 148.95C65.58 148.95 67.9781 151.348 67.9781 154.309C67.978 157.269 65.5799 159.667 62.6197 159.667C59.6593 159.667 57.2614 157.269 57.2613 154.309C57.2613 151.348 59.6592 148.95 62.6197 148.95Z" fill="black"/>
</mask>
<g mask="url(#mask2_1_664)">
<rect x="46.5446" y="143.592" width="32.1495" height="32.1495" fill="#7B7E8A"/>
</g>
<g opacity="0.4">
<mask id="mask3_1_664" style="mask-type:alpha" maskUnits="userSpaceOnUse" x="213" y="153" width="10" height="10">
<path d="M213.729 158.284H220.142L217.34 161.085C217.117 161.309 217.117 161.677 217.34 161.901C217.564 162.124 217.926 162.124 218.15 161.901L221.933 158.117C222.157 157.893 222.157 157.532 221.933 157.308L218.156 153.519C218.048 153.411 217.903 153.351 217.751 153.351C217.599 153.351 217.453 153.411 217.346 153.519C217.122 153.743 217.122 154.104 217.346 154.328L220.142 157.136H213.729C213.414 157.136 213.155 157.394 213.155 157.71C213.155 158.025 213.414 158.284 213.729 158.284Z" fill="black"/>
</mask>
<g mask="url(#mask3_1_664)">
<rect x="210.739" y="150.821" width="13.7784" height="13.7784" fill="#605C5C"/>
</g>
</g>
<g opacity="0.4">
<mask id="mask4_1_664" style="mask-type:alpha" maskUnits="userSpaceOnUse" x="109" y="153" width="10" height="10">
<path d="M110.39 158.284H116.802L114.001 161.085C113.777 161.309 113.777 161.677 114.001 161.901C114.225 162.124 114.586 162.124 114.81 161.901L118.594 158.117C118.817 157.893 118.817 157.532 118.594 157.308L114.816 153.519C114.709 153.411 114.563 153.351 114.411 153.351C114.259 153.351 114.114 153.411 114.006 153.519C113.783 153.743 113.783 154.104 114.006 154.328L116.802 157.136H110.39C110.074 157.136 109.816 157.394 109.816 157.71C109.816 158.025 110.074 158.284 110.39 158.284Z" fill="black"/>
</mask>
<g mask="url(#mask4_1_664)">
<rect x="107.399" y="150.821" width="13.7784" height="13.7784" fill="#605C5C"/>
</g>
</g>
<defs>
<linearGradient id="paint0_linear_1_664" x1="231.338" y1="123.677" x2="251.61" y2="189.763" gradientUnits="userSpaceOnUse">
<stop/>
<stop offset="1" stop-opacity="0"/>
</linearGradient>
<linearGradient id="paint1_linear_1_664" x1="229.237" y1="123.677" x2="277.15" y2="208.854" gradientUnits="userSpaceOnUse">
<stop stop-color="white"/>
<stop offset="1" stop-color="white" stop-opacity="0"/>
</linearGradient>
<linearGradient id="paint2_linear_1_664" x1="128.262" y1="123.677" x2="148.534" y2="189.763" gradientUnits="userSpaceOnUse">
<stop/>
<stop offset="1" stop-opacity="0"/>
</linearGradient>
<linearGradient id="paint3_linear_1_664" x1="126.161" y1="123.677" x2="174.073" y2="208.854" gradientUnits="userSpaceOnUse">
<stop stop-color="white"/>
<stop offset="1" stop-color="white" stop-opacity="0"/>
</linearGradient>
<linearGradient id="paint4_linear_1_664" x1="29.1011" y1="123.677" x2="49.3734" y2="189.763" gradientUnits="userSpaceOnUse">
<stop/>
<stop offset="1" stop-opacity="0"/>
</linearGradient>
<linearGradient id="paint5_linear_1_664" x1="27" y1="123.677" x2="74.9125" y2="208.854" gradientUnits="userSpaceOnUse">
<stop stop-color="white"/>
<stop offset="1" stop-color="white" stop-opacity="0"/>
</linearGradient>
</defs>
</svg>
