<svg width="504" height="560" viewBox="0 0 504 560" fill="none" xmlns="http://www.w3.org/2000/svg">
<rect width="504" height="560" rx="40" fill="#EFECE6"/>
<path opacity="0.4" d="M252.002 109V108.56V108.56V109ZM423.17 280.167H423.61V280.167H423.17ZM252.002 451.335V451.775V451.775V451.335ZM80.8346 280.167H80.3946V280.167H80.8346ZM252.002 109V108.56C251.422 108.56 250.844 108.563 250.266 108.569L250.27 109.009L250.274 109.449C250.849 109.443 251.425 109.44 252.002 109.44V109ZM243.385 109.213L243.363 108.774C242.207 108.831 241.054 108.9 239.904 108.98L239.935 109.419L239.965 109.858C241.109 109.778 242.257 109.71 243.407 109.653L243.385 109.213ZM233.072 110.035L233.024 109.597C231.876 109.724 230.73 109.862 229.589 110.01L229.646 110.447L229.703 110.883C230.838 110.735 231.978 110.598 233.121 110.472L233.072 110.035ZM222.83 111.476L222.755 111.042C221.619 111.238 220.486 111.444 219.357 111.661L219.44 112.093L219.523 112.525C220.646 112.309 221.773 112.104 222.904 111.91L222.83 111.476ZM212.697 113.534L212.596 113.106C211.475 113.369 210.358 113.644 209.246 113.929L209.355 114.355L209.464 114.781C210.571 114.498 211.682 114.225 212.797 113.963L212.697 113.534ZM202.709 116.204L202.583 115.783C201.478 116.114 200.378 116.457 199.283 116.81L199.418 117.229L199.553 117.648C200.643 117.296 201.737 116.955 202.836 116.626L202.709 116.204ZM192.903 119.476L192.752 119.064C191.668 119.462 190.589 119.871 189.516 120.291L189.677 120.701L189.837 121.111C190.904 120.693 191.977 120.286 193.055 119.889L192.903 119.476ZM183.309 123.341L183.132 122.939C182.076 123.402 181.026 123.875 179.981 124.359L180.166 124.758L180.351 125.158C181.39 124.676 182.435 124.205 183.486 123.744L183.309 123.341ZM173.97 127.781L173.769 127.39C172.744 127.915 171.725 128.451 170.712 128.997L170.921 129.385L171.129 129.772C172.137 129.229 173.151 128.696 174.171 128.172L173.97 127.781ZM164.918 132.778L164.693 132.399C163.702 132.986 162.716 133.583 161.738 134.189L161.969 134.563L162.201 134.937C163.175 134.334 164.155 133.74 165.142 133.156L164.918 132.778ZM156.184 138.312L155.937 137.947C154.983 138.593 154.035 139.249 153.094 139.914L153.347 140.273L153.601 140.633C154.538 139.971 155.481 139.319 156.431 138.676L156.184 138.312ZM147.798 144.363L147.53 144.014C146.616 144.717 145.71 145.428 144.811 146.148L145.086 146.491L145.361 146.835C146.255 146.118 147.157 145.411 148.066 144.712L147.798 144.363ZM139.792 150.908L139.503 150.576C138.634 151.331 137.772 152.095 136.917 152.868L137.213 153.194L137.508 153.521C138.358 152.752 139.215 151.992 140.08 151.24L139.792 150.908ZM132.193 157.921L131.885 157.607C131.063 158.413 130.248 159.228 129.441 160.051L129.756 160.359L130.07 160.667C130.872 159.848 131.683 159.038 132.501 158.235L132.193 157.921ZM125.029 165.378L124.703 165.083C123.93 165.937 123.166 166.799 122.41 167.669L122.742 167.957L123.075 168.246C123.826 167.381 124.587 166.523 125.355 165.673L125.029 165.378ZM118.326 173.251L117.982 172.976C117.262 173.875 116.551 174.781 115.849 175.695L116.198 175.963L116.547 176.231C117.245 175.322 117.953 174.421 118.669 173.526L118.326 173.251ZM112.108 181.513L111.748 181.259C111.084 182.2 110.428 183.148 109.782 184.103L110.146 184.349L110.511 184.596C111.153 183.646 111.806 182.703 112.467 181.767L112.108 181.513ZM106.398 190.135L106.024 189.903C105.418 190.882 104.821 191.867 104.233 192.859L104.612 193.083L104.991 193.307C105.575 192.32 106.169 191.34 106.772 190.367L106.398 190.135ZM101.219 199.086L100.832 198.877C100.286 199.89 99.75 200.909 99.2241 201.934L99.6156 202.135L100.007 202.336C100.53 201.316 101.063 200.302 101.606 199.295L101.219 199.086ZM96.5929 208.332L96.1936 208.147C95.7098 209.191 95.2363 210.242 94.7731 211.298L95.176 211.475L95.579 211.651C96.0398 210.601 96.5109 209.556 96.9921 208.516L96.5929 208.332ZM92.5356 217.842L92.1258 217.682C91.706 218.755 91.2967 219.833 90.8981 220.917L91.311 221.069L91.724 221.221C92.1206 220.143 92.5277 219.07 92.9453 218.002L92.5356 217.842ZM89.0633 227.583L88.6445 227.448C88.2914 228.544 87.9489 229.644 87.6173 230.748L88.0387 230.875L88.4601 231.001C88.79 229.902 89.1307 228.808 89.4821 227.719L89.0633 227.583ZM86.1898 237.521L85.7636 237.411C85.4784 238.524 85.204 239.64 84.9406 240.761L85.3689 240.862L85.7973 240.963C86.0593 239.847 86.3323 238.737 86.616 237.63L86.1898 237.521ZM83.9279 247.606L83.4959 247.522C83.2784 248.651 83.0721 249.784 82.8769 250.921L83.3106 250.995L83.7442 251.07C83.9384 249.939 84.1437 248.812 84.36 247.689L83.9279 247.606ZM82.2814 257.811L81.8451 257.754C81.6961 258.896 81.5584 260.041 81.4321 261.19L81.8694 261.238L82.3068 261.286C82.4325 260.143 82.5695 259.004 82.7177 257.868L82.2814 257.811ZM81.2534 268.1L80.8144 268.069C80.7343 269.22 80.6656 270.373 80.6082 271.529L81.0477 271.551L81.4872 271.572C81.5442 270.422 81.6126 269.275 81.6923 268.131L81.2534 268.1ZM80.8432 278.435L80.4032 278.431C80.3975 279.009 80.3946 279.588 80.3946 280.167H80.8346H81.2746C81.2746 279.591 81.2775 279.015 81.2832 278.44L80.8432 278.435ZM80.8346 280.167H80.3946C80.3946 280.746 80.3975 281.325 80.4032 281.903L80.8432 281.899L81.2832 281.894C81.2775 281.319 81.2746 280.743 81.2746 280.167H80.8346ZM81.0477 288.783L80.6082 288.805C80.6656 289.961 80.7343 291.115 80.8144 292.265L81.2534 292.234L81.6923 292.203C81.6126 291.059 81.5442 289.912 81.4872 288.762L81.0477 288.783ZM81.8694 299.096L81.432 299.144C81.5584 300.293 81.6961 301.438 81.845 302.58L82.2813 302.523L82.7177 302.466C82.5695 301.33 82.4325 300.191 82.3068 299.048L81.8694 299.096ZM83.3105 309.339L82.8769 309.413C83.072 310.55 83.2784 311.683 83.4958 312.812L83.9279 312.729L84.3599 312.645C84.1436 311.522 83.9383 310.395 83.7442 309.264L83.3105 309.339ZM85.3689 319.472L84.9405 319.573C85.2039 320.694 85.4783 321.81 85.7636 322.923L86.1898 322.814L86.616 322.704C86.3322 321.598 86.0592 320.487 85.7972 319.372L85.3689 319.472ZM88.0386 329.459L87.6172 329.586C87.9488 330.691 88.2913 331.791 88.6445 332.886L89.0632 332.751L89.482 332.616C89.1307 331.526 88.79 330.432 88.46 329.333L88.0386 329.459ZM91.311 339.265L90.898 339.417C91.2967 340.501 91.7059 341.579 92.1257 342.653L92.5355 342.492L92.9453 342.332C92.5277 341.264 92.1205 340.191 91.7239 339.113L91.311 339.265ZM95.176 348.86L94.773 349.036C95.2362 350.092 95.7098 351.143 96.1935 352.188L96.5928 352.003L96.9921 351.818C96.5108 350.778 96.0397 349.733 95.5789 348.683L95.176 348.86ZM99.6155 358.199L99.224 358.4C99.7499 359.425 100.286 360.444 100.832 361.457L101.219 361.248L101.606 361.04C101.063 360.032 100.53 359.018 100.007 357.998L99.6155 358.199ZM104.612 367.251L104.233 367.476C104.821 368.467 105.417 369.453 106.024 370.431L106.398 370.199L106.772 369.968C106.169 368.994 105.575 368.014 104.991 367.027L104.612 367.251ZM110.146 375.985L109.782 376.231C110.428 377.186 111.083 378.134 111.748 379.075L112.108 378.822L112.467 378.568C111.806 377.631 111.153 376.688 110.51 375.738L110.146 375.985ZM116.198 384.371L115.849 384.639C116.551 385.553 117.262 386.459 117.982 387.358L118.326 387.083L118.669 386.808C117.953 385.914 117.245 385.012 116.547 384.103L116.198 384.371ZM122.742 392.377L122.41 392.666C123.166 393.535 123.93 394.397 124.703 395.252L125.029 394.956L125.355 394.661C124.586 393.811 123.826 392.954 123.074 392.089L122.742 392.377ZM129.756 399.976L129.441 400.284C130.248 401.107 131.062 401.921 131.885 402.728L132.193 402.413L132.501 402.099C131.683 401.297 130.872 400.486 130.07 399.668L129.756 399.976ZM137.212 407.14L136.917 407.466C137.771 408.239 138.633 409.003 139.503 409.759L139.792 409.427L140.08 409.095C139.215 408.343 138.357 407.582 137.508 406.814L137.212 407.14ZM145.085 413.843L144.81 414.187C145.709 414.907 146.616 415.618 147.53 416.32L147.798 415.971L148.066 415.622C147.157 414.924 146.255 414.216 145.36 413.5L145.085 413.843ZM153.347 420.061L153.093 420.421C154.034 421.086 154.982 421.741 155.937 422.387L156.184 422.023L156.43 421.659C155.48 421.016 154.537 420.363 153.601 419.702L153.347 420.061ZM161.969 425.771L161.737 426.145C162.716 426.752 163.701 427.349 164.693 427.936L164.917 427.557L165.141 427.179C164.155 426.594 163.175 426.001 162.201 425.397L161.969 425.771ZM170.92 430.95L170.712 431.337C171.725 431.883 172.744 432.419 173.769 432.945L173.969 432.554L174.17 432.162C173.151 431.639 172.137 431.106 171.129 430.563L170.92 430.95ZM180.166 435.576L179.981 435.976C181.026 436.459 182.076 436.933 183.132 437.396L183.309 436.993L183.486 436.59C182.435 436.13 181.39 435.658 180.351 435.177L180.166 435.576ZM189.676 439.634L189.516 440.044C190.589 440.463 191.668 440.873 192.751 441.271L192.903 440.858L193.055 440.445C191.977 440.049 190.904 439.642 189.837 439.224L189.676 439.634ZM199.418 443.106L199.283 443.525C200.378 443.878 201.478 444.221 202.583 444.552L202.709 444.131L202.836 443.709C201.737 443.379 200.642 443.039 199.553 442.687L199.418 443.106ZM209.355 445.98L209.246 446.406C210.358 446.691 211.475 446.965 212.596 447.229L212.696 446.801L212.797 446.372C211.682 446.11 210.571 445.837 209.464 445.553L209.355 445.98ZM219.44 448.242L219.357 448.674C220.486 448.891 221.619 449.097 222.755 449.293L222.83 448.859L222.904 448.425C221.773 448.231 220.646 448.026 219.523 447.809L219.44 448.242ZM229.645 449.888L229.589 450.324C230.73 450.473 231.876 450.611 233.024 450.737L233.072 450.3L233.12 449.863C231.978 449.737 230.838 449.6 229.702 449.452L229.645 449.888ZM239.934 450.916L239.904 451.355C241.054 451.435 242.207 451.504 243.363 451.561L243.385 451.122L243.407 450.682C242.257 450.625 241.109 450.557 239.965 450.477L239.934 450.916ZM250.27 451.326L250.266 451.766C250.844 451.772 251.422 451.775 252.002 451.775V451.335V450.895C251.425 450.895 250.849 450.892 250.274 450.886L250.27 451.326ZM252.002 451.335V451.775C252.581 451.775 253.16 451.772 253.738 451.766L253.733 451.326L253.729 450.886C253.154 450.892 252.578 450.895 252.002 450.895V451.335ZM260.618 451.122L260.64 451.561C261.796 451.504 262.949 451.435 264.099 451.355L264.069 450.916L264.038 450.477C262.894 450.557 261.747 450.625 260.596 450.682L260.618 451.122ZM270.931 450.3L270.979 450.737C272.128 450.611 273.273 450.473 274.415 450.324L274.358 449.888L274.301 449.452C273.165 449.6 272.025 449.737 270.883 449.863L270.931 450.3ZM281.174 448.859L281.248 449.293C282.385 449.097 283.518 448.891 284.646 448.674L284.563 448.242L284.48 447.81C283.357 448.026 282.23 448.231 281.099 448.425L281.174 448.859ZM291.307 446.801L291.408 447.229C292.528 446.966 293.645 446.691 294.758 446.406L294.648 445.98L294.539 445.553C293.432 445.837 292.321 446.11 291.206 446.372L291.307 446.801ZM301.294 444.131L301.421 444.552C302.525 444.221 303.625 443.878 304.72 443.525L304.585 443.106L304.45 442.687C303.361 443.039 302.267 443.379 301.168 443.709L301.294 444.131ZM311.1 440.858L311.252 441.271C312.336 440.873 313.414 440.463 314.487 440.044L314.327 439.634L314.167 439.224C313.099 439.642 312.026 440.049 310.948 440.446L311.1 440.858ZM320.694 436.993L320.871 437.396C321.927 436.933 322.978 436.46 324.022 435.976L323.837 435.577L323.653 435.177C322.613 435.659 321.568 436.13 320.518 436.59L320.694 436.993ZM330.034 432.554L330.235 432.945C331.26 432.419 332.279 431.883 333.292 431.338L333.083 430.95L332.874 430.563C331.867 431.106 330.853 431.639 329.833 432.162L330.034 432.554ZM339.086 427.557L339.31 427.936C340.302 427.349 341.287 426.752 342.266 426.145L342.034 425.771L341.802 425.397C340.829 426.001 339.849 426.595 338.862 427.179L339.086 427.557ZM347.82 422.023L348.066 422.388C349.021 421.741 349.969 421.086 350.91 420.421L350.656 420.062L350.402 419.702C349.466 420.364 348.523 421.016 347.573 421.659L347.82 422.023ZM356.206 415.971L356.474 416.32C357.388 415.618 358.294 414.907 359.193 414.187L358.918 413.844L358.643 413.5C357.749 414.216 356.847 414.924 355.938 415.623L356.206 415.971ZM364.212 409.427L364.501 409.759C365.37 409.003 366.232 408.239 367.086 407.467L366.791 407.14L366.496 406.814C365.646 407.583 364.789 408.343 363.923 409.095L364.212 409.427ZM371.811 402.414L372.119 402.728C372.941 401.921 373.756 401.107 374.562 400.284L374.248 399.976L373.934 399.668C373.132 400.487 372.321 401.297 371.503 402.099L371.811 402.414ZM378.975 394.957L379.301 395.252C380.074 394.398 380.838 393.536 381.594 392.666L381.262 392.377L380.929 392.089C380.178 392.954 379.417 393.812 378.649 394.661L378.975 394.957ZM385.678 387.084L386.022 387.359C386.742 386.46 387.453 385.553 388.155 384.639L387.806 384.371L387.457 384.103C386.759 385.012 386.051 385.914 385.335 386.809L385.678 387.084ZM391.896 378.822L392.256 379.076C392.92 378.135 393.576 377.187 394.222 376.232L393.858 375.985L393.493 375.738C392.851 376.688 392.198 377.632 391.537 378.568L391.896 378.822ZM397.606 370.2L397.98 370.431C398.586 369.453 399.183 368.467 399.771 367.476L399.392 367.252L399.013 367.027C398.429 368.014 397.835 368.994 397.232 369.968L397.606 370.2ZM402.785 361.248L403.172 361.457C403.718 360.444 404.254 359.425 404.78 358.4L404.388 358.199L403.997 357.998C403.474 359.018 402.941 360.032 402.398 361.04L402.785 361.248ZM407.411 352.003L407.81 352.188C408.294 351.143 408.768 350.092 409.231 349.036L408.828 348.86L408.425 348.683C407.964 349.734 407.493 350.779 407.012 351.818L407.411 352.003ZM411.469 342.492L411.878 342.653C412.298 341.579 412.707 340.501 413.106 339.417L412.693 339.265L412.28 339.113C411.884 340.191 411.476 341.264 411.059 342.332L411.469 342.492ZM414.941 332.751L415.36 332.886C415.713 331.791 416.055 330.691 416.387 329.586L415.965 329.459L415.544 329.333C415.214 330.432 414.873 331.526 414.522 332.616L414.941 332.751ZM417.814 322.814L418.241 322.923C418.526 321.811 418.8 320.694 419.064 319.573L418.635 319.472L418.207 319.372C417.945 320.487 417.672 321.598 417.388 322.704L417.814 322.814ZM420.076 312.729L420.508 312.812C420.726 311.683 420.932 310.55 421.127 309.413L420.694 309.339L420.26 309.264C420.066 310.395 419.86 311.522 419.644 312.645L420.076 312.729ZM421.723 302.523L422.159 302.58C422.308 301.438 422.446 300.293 422.572 299.144L422.135 299.096L421.697 299.048C421.572 300.191 421.435 301.33 421.286 302.466L421.723 302.523ZM422.751 292.234L423.19 292.265C423.27 291.115 423.339 289.961 423.396 288.805L422.956 288.783L422.517 288.762C422.46 289.912 422.392 291.059 422.312 292.203L422.751 292.234ZM423.161 281.899L423.601 281.903C423.607 281.325 423.61 280.746 423.61 280.167H423.17H422.73C422.73 280.743 422.727 281.319 422.721 281.894L423.161 281.899ZM423.17 280.167H423.61C423.61 279.588 423.607 279.009 423.601 278.431L423.161 278.435L422.721 278.44C422.727 279.015 422.73 279.591 422.73 280.167H423.17ZM422.956 271.551L423.396 271.529C423.339 270.373 423.27 269.219 423.19 268.069L422.751 268.1L422.312 268.131C422.392 269.275 422.46 270.422 422.517 271.572L422.956 271.551ZM422.135 261.238L422.572 261.19C422.446 260.041 422.308 258.896 422.159 257.754L421.723 257.811L421.286 257.868C421.435 259.004 421.572 260.143 421.697 261.286L422.135 261.238ZM420.694 250.995L421.127 250.921C420.932 249.784 420.726 248.651 420.508 247.522L420.076 247.605L419.644 247.689C419.86 248.812 420.066 249.939 420.26 251.07L420.694 250.995ZM418.635 240.862L419.064 240.761C418.8 239.64 418.526 238.524 418.24 237.411L417.814 237.52L417.388 237.63C417.672 238.736 417.945 239.847 418.207 240.962L418.635 240.862ZM415.965 230.875L416.387 230.748C416.055 229.643 415.713 228.543 415.359 227.448L414.941 227.583L414.522 227.718C414.873 228.808 415.214 229.902 415.544 231.001L415.965 230.875ZM412.693 221.069L413.106 220.917C412.707 219.833 412.298 218.755 411.878 217.681L411.468 217.842L411.059 218.002C411.476 219.07 411.883 220.143 412.28 221.221L412.693 221.069ZM408.828 211.474L409.231 211.298C408.768 210.242 408.294 209.191 407.81 208.146L407.411 208.331L407.012 208.516C407.493 209.556 407.964 210.601 408.425 211.651L408.828 211.474ZM404.388 202.135L404.78 201.934C404.254 200.909 403.718 199.89 403.172 198.877L402.785 199.086L402.397 199.295C402.94 200.302 403.474 201.316 403.997 202.336L404.388 202.135ZM399.392 193.083L399.77 192.859C399.183 191.867 398.586 190.882 397.98 189.903L397.606 190.135L397.232 190.366C397.835 191.34 398.429 192.32 399.013 193.307L399.392 193.083ZM393.858 184.349L394.222 184.103C393.576 183.148 392.92 182.2 392.255 181.259L391.896 181.513L391.537 181.766C392.198 182.703 392.85 183.646 393.493 184.596L393.858 184.349ZM387.806 175.963L388.155 175.695C387.453 174.781 386.741 173.875 386.021 172.976L385.678 173.251L385.335 173.526C386.051 174.42 386.758 175.322 387.457 176.231L387.806 175.963ZM381.261 167.957L381.594 167.668C380.838 166.799 380.074 165.937 379.301 165.083L378.975 165.378L378.648 165.673C379.417 166.523 380.177 167.38 380.929 168.246L381.261 167.957ZM374.248 160.358L374.562 160.05C373.756 159.228 372.941 158.413 372.118 157.607L371.81 157.921L371.503 158.235C372.321 159.037 373.132 159.848 373.934 160.666L374.248 160.358ZM366.791 153.194L367.086 152.868C366.232 152.095 365.37 151.331 364.5 150.576L364.212 150.908L363.923 151.24C364.789 151.992 365.646 152.752 366.496 153.521L366.791 153.194ZM358.918 146.491L359.193 146.148C358.294 145.428 357.388 144.716 356.474 144.014L356.206 144.363L355.938 144.712C356.847 145.411 357.749 146.118 358.643 146.835L358.918 146.491ZM350.656 140.273L350.91 139.914C349.969 139.249 349.021 138.593 348.066 137.947L347.82 138.311L347.573 138.676C348.523 139.319 349.466 139.971 350.402 140.632L350.656 140.273ZM342.034 134.563L342.266 134.189C341.287 133.583 340.302 132.986 339.31 132.399L339.086 132.777L338.862 133.156C339.848 133.74 340.829 134.334 341.802 134.937L342.034 134.563ZM333.083 129.384L333.292 128.997C332.279 128.451 331.26 127.915 330.235 127.389L330.034 127.781L329.833 128.172C330.853 128.696 331.867 129.229 332.874 129.772L333.083 129.384ZM323.837 124.758L324.022 124.359C322.977 123.875 321.927 123.402 320.871 122.938L320.694 123.341L320.518 123.744C321.568 124.205 322.613 124.676 323.653 125.157L323.837 124.758ZM314.327 120.701L314.487 120.291C313.414 119.871 312.336 119.462 311.252 119.063L311.1 119.476L310.948 119.889C312.026 120.286 313.099 120.693 314.167 121.111L314.327 120.701ZM304.585 117.229L304.72 116.81C303.625 116.457 302.525 116.114 301.421 115.783L301.294 116.204L301.168 116.625C302.266 116.955 303.361 117.296 304.45 117.647L304.585 117.229ZM294.648 114.355L294.758 113.929C293.645 113.644 292.528 113.369 291.408 113.106L291.307 113.534L291.206 113.963C292.321 114.225 293.432 114.498 294.539 114.781L294.648 114.355ZM284.563 112.093L284.646 111.661C283.518 111.444 282.385 111.237 281.248 111.042L281.174 111.476L281.099 111.91C282.23 112.104 283.357 112.309 284.48 112.525L284.563 112.093ZM274.358 110.447L274.415 110.01C273.273 109.862 272.128 109.724 270.979 109.597L270.931 110.035L270.883 110.472C272.026 110.598 273.165 110.735 274.301 110.883L274.358 110.447ZM264.069 109.419L264.099 108.98C262.949 108.9 261.796 108.831 260.64 108.774L260.618 109.213L260.596 109.653C261.747 109.71 262.894 109.778 264.038 109.858L264.069 109.419ZM253.733 109.009L253.738 108.569C253.16 108.563 252.581 108.56 252.002 108.56V109V109.44C252.578 109.44 253.154 109.443 253.729 109.449L253.733 109.009Z" fill="black"/>
<rect x="352" y="225" width="110" height="110" rx="55" fill="#212121"/>
<rect x="352" y="225" width="110" height="110" rx="55" fill="url(#paint0_linear_6_987)" fill-opacity="0.3"/>
<rect x="352.44" y="225.44" width="109.12" height="109.12" rx="54.56" stroke="url(#paint1_linear_6_987)" stroke-opacity="0.6" stroke-width="0.88"/>
<mask id="mask0_6_987" style="mask-type:alpha" maskUnits="userSpaceOnUse" x="386" y="259" width="42" height="42">
<path d="M406.64 259.107C417.974 259.107 427.173 268.306 427.173 279.64C427.173 290.974 417.974 300.173 406.64 300.173C395.306 300.173 386.107 290.974 386.107 279.64C386.107 268.306 395.306 259.107 406.64 259.107ZM419.556 269.969C418.755 269.168 417.461 269.168 416.66 269.969L402.533 284.096L396.599 278.182C395.798 277.381 394.505 277.381 393.704 278.182C393.32 278.566 393.104 279.087 393.104 279.63C393.104 280.173 393.32 280.694 393.704 281.077L401.075 288.448C401.876 289.249 403.191 289.249 403.971 288.448L419.556 272.865C420.357 272.064 420.356 270.77 419.556 269.969Z" fill="black"/>
</mask>
<g mask="url(#mask0_6_987)">
<rect x="382" y="255" width="49.28" height="49.28" fill="#BF78C8"/>
</g>
<rect x="194" y="225" width="110" height="110" rx="55" fill="#212121"/>
<rect x="194" y="225" width="110" height="110" rx="55" fill="url(#paint2_linear_6_987)" fill-opacity="0.3"/>
<rect x="194.44" y="225.44" width="109.12" height="109.12" rx="54.56" stroke="url(#paint3_linear_6_987)" stroke-opacity="0.6" stroke-width="0.88"/>
<mask id="mask1_6_987" style="mask-type:alpha" maskUnits="userSpaceOnUse" x="228" y="259" width="42" height="42">
<path d="M249.241 259.539C260.576 259.539 269.775 268.738 269.775 280.073C269.775 291.407 260.576 300.606 249.241 300.606C237.907 300.606 228.708 291.407 228.708 280.073C228.708 268.738 237.907 259.539 249.241 259.539ZM249.406 263.646C247.907 263.646 246.675 264.878 246.675 266.377V267.609C243.143 268.368 240.289 270.669 240.289 274.2C240.289 278.41 243.78 280.504 248.872 281.736C253.451 282.824 254.355 284.426 254.355 286.13C254.355 287.383 253.45 289.395 249.426 289.395C246.429 289.395 244.868 288.327 244.273 286.787C243.985 286.069 243.369 285.555 242.61 285.555H242.116C240.885 285.555 240.002 286.807 240.474 287.937C241.501 290.462 243.924 291.961 246.655 292.536V293.769C246.655 295.267 247.886 296.499 249.385 296.499H249.406C250.904 296.499 252.137 295.268 252.137 293.769V292.577C255.71 291.9 258.523 289.847 258.564 286.089C258.564 280.915 254.128 279.129 249.981 278.061C245.833 276.993 244.499 275.863 244.498 274.139C244.498 272.168 246.346 270.771 249.426 270.771C252.013 270.771 253.307 271.778 253.78 273.338C253.985 274.077 254.601 274.611 255.361 274.611H255.895C257.106 274.61 257.968 273.419 257.558 272.29C256.778 270.114 254.991 268.348 252.157 267.65V266.377C252.157 264.878 250.925 263.646 249.426 263.646H249.406Z" fill="black"/>
</mask>
<g mask="url(#mask1_6_987)">
<rect x="224.602" y="255.433" width="49.28" height="49.28" fill="white"/>
</g>
<rect x="42" y="225" width="110" height="110" rx="55" fill="#212121"/>
<rect x="42" y="225" width="110" height="110" rx="55" fill="url(#paint4_linear_6_987)" fill-opacity="0.3"/>
<rect x="42.44" y="225.44" width="109.12" height="109.12" rx="54.56" stroke="url(#paint5_linear_6_987)" stroke-opacity="0.6" stroke-width="0.88"/>
<mask id="mask2_6_987" style="mask-type:alpha" maskUnits="userSpaceOnUse" x="80" y="263" width="34" height="34">
<path d="M96.6011 284.274C102.084 284.274 113.028 287.026 113.028 292.488V294.541C113.028 295.67 112.103 296.594 110.974 296.594H82.228C81.0987 296.594 80.1743 295.67 80.1743 294.541V292.488C80.1743 287.026 91.1187 284.274 96.6011 284.274ZM96.6011 263.741C101.139 263.741 104.814 267.416 104.814 271.954C104.814 276.491 101.139 280.167 96.6011 280.167C92.0632 280.167 88.3872 276.491 88.3872 271.954C88.3874 267.416 92.0634 263.741 96.6011 263.741Z" fill="black"/>
</mask>
<g mask="url(#mask2_6_987)">
<rect x="71.9609" y="255.527" width="49.28" height="49.28" fill="#7B7E8A"/>
</g>
<g opacity="0.4">
<mask id="mask3_6_987" style="mask-type:alpha" maskUnits="userSpaceOnUse" x="327" y="270" width="15" height="14">
<path d="M328.224 278.047H338.053L333.759 282.342C333.416 282.685 333.416 283.248 333.759 283.591C334.102 283.935 334.657 283.935 335 283.591L340.799 277.792C341.142 277.449 341.142 276.895 340.799 276.551L335.009 270.743C334.844 270.579 334.621 270.486 334.388 270.486C334.155 270.486 333.932 270.579 333.768 270.743C333.425 271.087 333.425 271.641 333.768 271.984L338.053 276.287H328.224C327.74 276.287 327.344 276.683 327.344 277.167C327.344 277.651 327.74 278.047 328.224 278.047Z" fill="black"/>
</mask>
<g mask="url(#mask3_6_987)">
<rect x="323.64" y="266.607" width="21.12" height="21.12" fill="#605C5C"/>
</g>
</g>
<g opacity="0.4">
<mask id="mask4_6_987" style="mask-type:alpha" maskUnits="userSpaceOnUse" x="168" y="270" width="15" height="14">
<path d="M169.824 278.047H179.653L175.359 282.342C175.016 282.685 175.016 283.248 175.359 283.591C175.702 283.935 176.257 283.935 176.6 283.591L182.399 277.792C182.742 277.449 182.742 276.895 182.399 276.551L176.609 270.743C176.444 270.579 176.221 270.486 175.988 270.486C175.755 270.486 175.532 270.579 175.368 270.743C175.025 271.087 175.025 271.641 175.368 271.984L179.653 276.287H169.824C169.34 276.287 168.944 276.683 168.944 277.167C168.944 277.651 169.34 278.047 169.824 278.047Z" fill="black"/>
</mask>
<g mask="url(#mask4_6_987)">
<rect x="165.24" y="266.607" width="21.12" height="21.12" fill="#605C5C"/>
</g>
</g>
<defs>
<linearGradient id="paint0_linear_6_987" x1="355.221" y1="225" x2="386.295" y2="326.301" gradientUnits="userSpaceOnUse">
<stop/>
<stop offset="1" stop-opacity="0"/>
</linearGradient>
<linearGradient id="paint1_linear_6_987" x1="352" y1="225" x2="425.442" y2="355.564" gradientUnits="userSpaceOnUse">
<stop stop-color="white"/>
<stop offset="1" stop-color="white" stop-opacity="0"/>
</linearGradient>
<linearGradient id="paint2_linear_6_987" x1="197.221" y1="225" x2="228.295" y2="326.301" gradientUnits="userSpaceOnUse">
<stop/>
<stop offset="1" stop-opacity="0"/>
</linearGradient>
<linearGradient id="paint3_linear_6_987" x1="194" y1="225" x2="267.442" y2="355.564" gradientUnits="userSpaceOnUse">
<stop stop-color="white"/>
<stop offset="1" stop-color="white" stop-opacity="0"/>
</linearGradient>
<linearGradient id="paint4_linear_6_987" x1="45.2207" y1="225" x2="76.2948" y2="326.301" gradientUnits="userSpaceOnUse">
<stop/>
<stop offset="1" stop-opacity="0"/>
</linearGradient>
<linearGradient id="paint5_linear_6_987" x1="42" y1="225" x2="115.442" y2="355.564" gradientUnits="userSpaceOnUse">
<stop stop-color="white"/>
<stop offset="1" stop-color="white" stop-opacity="0"/>
</linearGradient>
</defs>
</svg>
