<svg width="40" height="40" viewBox="0 0 40 40" fill="none" xmlns="http://www.w3.org/2000/svg">
<path d="M7.83851 0C3.52794 0 0 3.52786 0 7.83851V32.1628C0 36.4733 3.52786 40 7.83851 40H32.1628C36.4734 40 40 36.4734 40 32.1628V7.83851C40 3.52794 36.4734 0 32.1628 0H7.83851ZM9.81001 6.6008C11.8768 6.6008 13.1499 7.95764 13.1892 9.74118C13.1892 11.4853 11.8768 12.8803 9.77003 12.8803H9.73125C7.70377 12.8803 6.39331 11.4854 6.39331 9.74118C6.39331 7.95768 7.74342 6.6008 9.80997 6.6008H9.81001ZM27.621 14.9368C31.5959 14.9368 34.5756 17.5349 34.5756 23.1179V33.5404H28.5349V23.8166C28.5349 21.3732 27.6606 19.7061 25.4745 19.7061C23.8056 19.7061 22.8108 20.8297 22.3741 21.9152C22.2145 22.3035 22.1753 22.8459 22.1753 23.3891V33.5404H16.1346C16.1346 33.5404 16.2138 17.0687 16.1346 15.3631H22.1766V17.9372C22.9793 16.6987 24.4152 14.9368 27.621 14.9368V14.9368ZM6.74963 15.3644H12.7904V33.5405H6.74963V15.3644Z" fill="#E7E6E2"/>
</svg>
