<svg width="327" height="320" viewBox="0 0 327 320" fill="none" xmlns="http://www.w3.org/2000/svg">
<g clip-path="url(#clip0_1_621)">
<rect width="327" height="320" rx="20" fill="#EFECE6"/>
<g clip-path="url(#clip1_1_621)">
<path opacity="0.5" d="M-767.853 154.724L-766.161 164.425C-765.165 170.127 -757.078 170.402 -755.699 164.779C-754.32 158.939 -745.935 159.15 -744.849 165.053L-743.667 171.495C-743.586 171.928 -743.459 172.351 -743.285 172.756L-738.818 183.164C-738.019 185.025 -736.091 186.14 -734.079 185.904C-732.422 185.71 -731.002 184.631 -730.372 183.087L-725.317 170.692L-719.366 149.966C-719.283 149.677 -719.177 149.394 -719.051 149.121L-715.162 140.7C-714.076 138.345 -711.239 137.379 -708.939 138.579C-707.765 139.192 -706.917 140.288 -706.618 141.58L-701.442 163.944C-701.163 165.153 -700.508 166.243 -699.573 167.059L-695.507 170.61C-695.127 170.941 -694.791 171.319 -694.507 171.735L-689.642 178.885C-689.127 179.643 -688.442 180.27 -687.642 180.717L-684.754 182.33C-683.538 183.009 -682.049 182.971 -680.868 182.232C-678.758 180.91 -675.968 181.93 -675.207 184.301L-670.629 198.59L-665.197 211.159C-664.776 212.136 -664.098 212.981 -663.234 213.604L-658.831 216.78C-658.595 216.95 -658.347 217.102 -658.088 217.236L-654.507 219.087C-653.154 219.787 -652.125 220.981 -651.633 222.421L-651.344 223.27C-649.589 228.404 -642.417 228.649 -640.316 223.645L-640.247 223.48L-634.17 207.874L-631.752 198.614C-630.822 195.047 -625.724 195.134 -624.916 198.731C-624.125 202.248 -619.185 202.441 -618.123 198.996L-616.309 193.122C-616.069 192.34 -615.627 191.634 -615.027 191.076L-613.836 189.969C-611.952 188.214 -608.885 188.948 -607.999 191.368C-606.764 194.743 -601.889 194.426 -601.1 190.92L-600.487 188.189C-599.676 184.582 -594.66 184.264 -593.399 187.739C-592.533 190.123 -589.582 190.95 -587.603 189.364L-585.559 187.724L-580.631 182.6C-579.88 181.818 -579.358 180.844 -579.124 179.785L-573.626 154.959C-573.48 154.302 -573.218 153.675 -572.855 153.109L-571.757 151.407C-569.823 148.409 -565.351 148.696 -563.817 151.916L-562.827 153.995C-562.035 155.66 -559.875 156.115 -558.478 154.911C-556.934 153.582 -554.533 154.296 -553.967 156.254L-549.306 172.382C-549.169 172.857 -548.974 173.312 -548.722 173.737L-543.727 182.225C-543.265 183.012 -542.626 183.681 -541.86 184.179L-538.4 186.43C-537.452 187.047 -536.7 187.923 -536.236 188.954L-530.871 200.867L-525.062 210.892C-524.885 211.2 -524.734 211.524 -524.614 211.859L-518.96 227.641C-518.798 228.089 -518.586 228.515 -518.322 228.911L-513.941 235.522C-513.107 236.781 -511.82 237.673 -510.347 238.012L-509.727 238.155C-507.774 238.605 -506.22 240.076 -505.663 242C-504.132 247.277 -496.673 247.328 -495.073 242.072L-494.412 239.899L-494.198 239.396C-492.136 234.527 -485.156 234.765 -483.429 239.763L-483.234 240.327C-482.638 242.058 -481.11 243.299 -479.292 243.529C-477.401 243.769 -475.548 242.871 -474.565 241.239L-471.332 235.87C-470.546 234.564 -469.285 233.613 -467.813 233.217L-464.03 232.197L-458.821 230.606C-458.246 230.431 -457.648 230.344 -457.046 230.349L-455.126 230.365C-453.104 230.382 -451.213 229.361 -450.116 227.66L-448.835 225.67C-447.173 223.09 -443.708 222.388 -441.172 224.118C-440.23 224.76 -439.111 225.092 -437.97 225.065L-437.094 225.044C-434.966 224.995 -433.028 223.801 -432.025 221.922L-429.607 217.388C-428.395 215.115 -425.85 213.891 -423.316 214.363L-422.314 214.55C-421.771 214.652 -421.244 214.83 -420.748 215.078L-415.417 217.755L-410.792 220.454C-409.844 221.007 -408.76 221.285 -407.664 221.256L-405.888 221.21C-404.218 221.166 -402.608 221.833 -401.458 223.043L-398.581 226.069C-397.679 227.018 -396.486 227.64 -395.192 227.837L-392.874 228.19C-391.726 228.365 -390.653 228.876 -389.794 229.658L-385.035 233.983L-379.603 237.941C-379.176 238.252 -378.793 238.62 -378.462 239.033L-373.405 245.383C-373.058 245.817 -372.775 246.297 -372.565 246.811L-367.544 258.99C-367.064 260.151 -366.228 261.13 -365.154 261.782L-362.364 263.479C-361.302 264.126 -360.472 265.092 -359.99 266.24L-359.675 266.989C-357.718 271.664 -351.165 271.857 -348.934 267.306L-348.792 267.016C-348.649 266.725 -348.531 266.423 -348.438 266.112L-346.272 258.887C-345.051 254.814 -339.357 254.613 -337.852 258.59C-337.042 260.73 -334.738 261.907 -332.529 261.308L-330.347 260.717L-324.27 258.301L-318.196 255.269L-312.118 251.205L-308.031 249.202C-306.749 248.574 -305.282 248.431 -303.902 248.802L-301.413 249.471C-300.463 249.726 -299.464 249.74 -298.507 249.511L-295.876 248.881C-294.589 248.572 -293.442 247.84 -292.621 246.802L-289.561 242.933C-288.455 241.535 -286.776 240.712 -284.993 240.693L-283.914 240.682C-282.508 240.667 -281.154 240.151 -280.095 239.227L-276.08 235.724C-275.8 235.479 -275.498 235.262 -275.177 235.075L-273.434 234.056C-271.155 232.724 -268.27 233.067 -266.367 234.895L-264.499 236.69C-263.846 237.317 -263.058 237.785 -262.196 238.059L-257.841 239.441C-257.568 239.528 -257.3 239.635 -257.042 239.761L-253.748 241.366C-252.226 242.107 -250.458 242.159 -248.895 241.509L-248.675 241.417C-246.614 240.559 -244.239 241.012 -242.638 242.568L-241.454 243.719C-240.158 244.979 -238.136 245.103 -236.695 244.013C-234.85 242.617 -232.188 243.262 -231.188 245.349L-227.694 252.631C-227.27 253.516 -226.632 254.281 -225.837 254.857L-224.02 256.174C-222.161 257.522 -219.688 257.669 -217.682 256.551L-215.98 255.602C-215.265 255.203 -214.474 254.958 -213.658 254.881L-212.059 254.731C-210.042 254.542 -208.263 253.331 -207.347 251.525L-203.175 243.298C-202.888 242.733 -202.694 242.125 -202.601 241.498L-199.723 222.156C-199.184 218.535 -193.971 218.508 -193.394 222.123C-192.832 225.648 -187.794 225.747 -187.094 222.247L-184.855 211.065C-184.633 209.955 -184.058 208.947 -183.216 208.19L-179.702 205.031C-178.875 204.288 -178.275 203.326 -177.971 202.256L-172.52 183.079C-172.413 182.705 -172.27 182.342 -172.093 181.996L-170.69 179.267C-168.675 175.344 -163.226 174.937 -160.65 178.517L-160.207 179.132L-158.94 180.755C-156.528 183.842 -151.833 183.767 -149.522 180.603L-148.054 178.593L-142.796 172.419C-142.256 171.785 -141.857 171.045 -141.624 170.246L-139.497 162.961C-138.453 159.382 -133.38 159.391 -132.348 162.973L-132.063 163.964C-131.244 166.806 -127.389 167.22 -125.986 164.618C-124.898 162.601 -122.137 162.279 -120.614 163.99L-117.672 167.297L-111.595 175.27L-107.755 182.02C-106.491 184.242 -103.734 185.126 -101.413 184.052C-100.158 183.471 -98.7157 183.446 -97.4405 183.982L-95.0328 184.994C-93.9465 185.451 -93.0216 186.222 -92.3778 187.209L-89.8878 191.024C-88.3711 193.348 -85.4395 194.302 -82.8455 193.315L-81.213 192.693L-79.447 192.124C-76.9045 191.304 -74.1283 192.294 -72.6787 194.538L-69.7886 199.01C-69.309 199.753 -69.0023 200.593 -68.8909 201.47L-67.0606 215.893C-66.4173 220.961 -59.0958 221.023 -58.3675 215.966L-58.1981 214.79C-57.712 211.414 -53.4177 210.265 -51.3105 212.947C-50.9938 213.351 -50.7601 213.813 -50.623 214.307L-46.1029 230.612C-45.4059 233.127 -42.5795 234.372 -40.2532 233.189C-39.2472 232.678 -38.4944 231.777 -38.17 230.696L-32.7466 212.624C-32.6498 212.302 -32.5257 211.988 -32.3756 211.687L-26.7897 200.486C-26.6135 200.132 -26.4024 199.798 -26.1592 199.486L-22.683 195.036C-21.3126 193.282 -19.0714 192.448 -16.8874 192.88L-15.7019 193.114C-14.8265 193.287 -14.0019 193.657 -13.2899 194.194L-11.4663 195.571C-9.54938 197.018 -6.94648 197.16 -4.88401 195.928L-3.36764 195.023C-2.61143 194.572 -1.96613 193.957 -1.47844 193.224L3.85749 185.199L7.70737 178.055C9.01067 175.636 11.8109 174.437 14.461 175.162L14.9164 175.287C15.6392 175.485 16.3928 175.543 17.1374 175.459L20.1575 175.117C21.4107 174.976 22.6764 175.239 23.769 175.869L27.4285 177.979C27.9158 178.26 28.3604 178.609 28.7489 179.016L34.24 184.766L38.1176 188.422C39.4886 189.715 41.4214 190.225 43.2515 189.776C45.193 189.301 47.2405 189.905 48.6128 191.358L51.2415 194.141C52.042 194.989 52.5736 196.054 52.7689 197.203L55.8152 215.121C56.4929 219.107 62.0842 219.456 63.2522 215.586C63.9569 213.251 66.6364 212.162 68.7701 213.344L69.1573 213.558C70.1429 214.103 70.8666 215.023 71.1652 216.109L75.7136 232.657C76.2957 234.779 78.5069 236.009 80.6178 235.386C81.9948 234.979 83.0413 233.854 83.3463 232.45L84.4598 227.324C85.6323 221.934 93.2279 221.681 94.7544 226.981C94.9197 227.555 95.1813 228.096 95.5255 228.583L98.2364 232.403C99.8614 234.692 102.936 235.413 105.409 234.083C106.54 233.475 107.425 232.495 107.915 231.308L113.233 218.428L119.31 204.554L124.863 194.685C125.209 194.07 125.664 193.522 126.203 193.066L131.095 188.945C131.339 188.739 131.568 188.513 131.776 188.27L135.335 184.114C136.679 182.543 138.813 181.896 140.804 182.456C142.555 182.948 144.435 182.51 145.789 181.295L148.994 178.417C149.456 178.001 149.851 177.514 150.162 176.975L155.505 167.713C155.68 167.409 155.883 167.122 156.109 166.854L161.846 160.062" stroke="url(#paint0_linear_1_621)" stroke-width="1.55464"/>
<circle cx="194.203" cy="185.874" r="63.4734" fill="#1D1D1D"/>
<circle cx="194.203" cy="185.874" r="63.1622" stroke="url(#paint1_linear_1_621)" stroke-opacity="0.3" stroke-width="0.622288"/>
<circle cx="194.204" cy="185.874" r="52.8945" fill="black" fill-opacity="0.16"/>
<circle cx="194.204" cy="185.874" r="52.3763" stroke="url(#paint2_linear_1_621)" stroke-opacity="0.4" stroke-width="1.03642"/>
<mask id="mask0_1_621" style="mask-type:alpha" maskUnits="userSpaceOnUse" x="141" y="132" width="107" height="107">
<circle cx="194.205" cy="185.874" r="52.8945" fill="#212121"/>
</mask>
<g mask="url(#mask0_1_621)">
<path d="M-363.366 106.703L-361.674 116.404C-360.679 122.107 -352.591 122.381 -351.212 116.759C-349.833 110.918 -341.449 111.13 -340.363 117.032L-339.181 123.475C-339.1 123.908 -338.972 124.331 -338.799 124.736L-334.331 135.144C-333.533 137.005 -331.605 138.12 -329.592 137.884C-327.936 137.69 -326.515 136.611 -325.886 135.067L-320.83 122.671L-314.879 101.946C-314.797 101.656 -314.69 101.374 -314.564 101.1L-310.675 92.6796C-309.589 90.3247 -306.752 89.3582 -304.453 90.5584C-303.278 91.1717 -302.43 92.2679 -302.131 93.5592L-296.956 115.924C-296.676 117.133 -296.021 118.223 -295.087 119.039L-291.02 122.589C-290.641 122.92 -290.304 123.298 -290.021 123.715L-285.156 130.864C-284.641 131.622 -283.956 132.25 -283.155 132.697L-280.267 134.309C-279.052 134.988 -277.562 134.951 -276.382 134.211C-274.271 132.89 -271.482 133.91 -270.72 136.281L-266.142 150.57L-260.711 163.139C-260.29 164.116 -259.611 164.961 -258.748 165.584L-254.345 168.759C-254.109 168.929 -253.861 169.082 -253.601 169.215L-250.021 171.067C-248.667 171.766 -247.638 172.961 -247.147 174.401L-246.857 175.249C-245.103 180.384 -237.93 180.628 -235.829 175.624L-235.76 175.459L-229.683 159.854L-227.266 150.594C-226.335 147.026 -221.238 147.113 -220.429 150.711C-219.639 154.228 -214.699 154.421 -213.636 150.976L-211.823 145.102C-211.583 144.319 -211.14 143.614 -210.54 143.056L-209.35 141.949C-207.465 140.193 -204.398 140.928 -203.513 143.347C-202.278 146.722 -197.403 146.405 -196.614 142.899L-196 140.169C-195.19 136.562 -190.173 136.244 -188.912 139.719C-188.046 142.102 -185.096 142.929 -183.117 141.343L-181.073 139.703L-176.145 134.579C-175.393 133.797 -174.872 132.824 -174.638 131.765L-169.139 106.939C-168.994 106.281 -168.732 105.655 -168.368 105.089L-167.27 103.386C-165.336 100.388 -160.865 100.675 -159.33 103.896L-158.341 105.974C-157.548 107.639 -155.388 108.094 -153.991 106.891C-152.447 105.561 -150.047 106.276 -149.48 108.233L-144.82 124.362C-144.682 124.836 -144.488 125.291 -144.236 125.716L-139.241 134.205C-138.779 134.992 -138.139 135.661 -137.374 136.159L-133.914 138.41C-132.965 139.026 -132.214 139.902 -131.75 140.933L-126.385 152.846L-120.576 162.871C-120.399 163.179 -120.247 163.503 -120.127 163.839L-114.473 179.621C-114.312 180.068 -114.099 180.494 -113.836 180.89L-109.455 187.501C-108.621 188.761 -107.334 189.653 -105.861 189.992L-105.241 190.135C-103.287 190.584 -101.733 192.056 -101.177 193.98C-99.646 199.257 -92.1861 199.307 -90.5868 194.051L-89.9258 191.879L-89.7114 191.375C-87.6497 186.507 -80.6699 186.745 -78.9426 191.743L-78.7479 192.307C-78.1518 194.037 -76.6232 195.279 -74.8055 195.509C-72.9149 195.749 -71.0618 194.851 -70.0782 193.218L-66.846 187.85C-66.0591 186.544 -64.7981 185.593 -63.3266 185.196L-59.5435 184.177L-54.3342 182.586C-53.7598 182.41 -53.1617 182.324 -52.5598 182.328L-50.6397 182.344C-48.6174 182.361 -46.7269 181.34 -45.6291 179.64L-44.3485 177.649C-42.6861 175.069 -39.2218 174.368 -36.686 176.097C-35.7437 176.74 -34.6243 177.071 -33.4833 177.044L-32.6079 177.024C-30.4793 176.974 -28.5416 175.78 -27.5383 173.901L-25.1205 169.367C-23.9087 167.094 -21.3631 165.87 -18.8293 166.343L-17.8279 166.53C-17.285 166.632 -16.7577 166.809 -16.262 167.058L-10.9307 169.735L-6.30572 172.434C-5.35751 172.987 -4.27356 173.264 -3.1778 173.236L-1.40137 173.189C0.268829 173.146 1.87802 173.812 3.02886 175.023L5.90501 178.049C6.80798 178.998 8.00017 179.62 9.29462 179.817L11.612 180.169C12.7609 180.344 13.833 180.855 14.6927 181.637L19.4515 185.962L24.8831 189.921C25.31 190.232 25.6936 190.599 26.0241 191.013L31.0819 197.362C31.4282 197.796 31.7115 198.277 31.922 198.79L36.9423 210.97C37.4223 212.131 38.2584 213.109 39.3325 213.762L42.1221 215.459C43.1845 216.106 44.0146 217.072 44.4966 218.219L44.8114 218.969C46.7688 223.643 53.3217 223.836 55.5526 219.285L55.6942 218.995C55.8378 218.704 55.9559 218.402 56.0483 218.092L58.2143 210.866C59.436 206.793 65.1292 206.592 66.6341 210.569C67.4446 212.71 69.7483 213.886 71.9575 213.287L74.1392 212.696L80.216 210.281L86.2909 207.248L92.3682 203.185L96.4551 201.182C97.7378 200.553 99.2049 200.411 100.584 200.781L103.073 201.45C104.024 201.705 105.022 201.719 105.979 201.49L108.61 200.86C109.898 200.552 111.044 199.82 111.865 198.782L114.925 194.913C116.031 193.514 117.71 192.691 119.493 192.673L120.572 192.661C121.978 192.647 123.333 192.131 124.392 191.206L128.406 187.703C128.686 187.459 128.988 187.242 129.309 187.054L131.053 186.035C133.331 184.704 136.217 185.046 138.12 186.875L139.988 188.669C140.64 189.296 141.428 189.765 142.291 190.039L146.645 191.421C146.919 191.508 147.186 191.615 147.444 191.74L150.738 193.345C152.261 194.087 154.029 194.139 155.592 193.488L155.811 193.397C157.873 192.538 160.247 192.991 161.848 194.547L163.033 195.698C164.328 196.958 166.35 197.083 167.791 195.993C169.637 194.597 172.298 195.242 173.299 197.328L176.792 204.611C177.216 205.496 177.855 206.261 178.649 206.837L180.466 208.154C182.326 209.502 184.798 209.649 186.804 208.531L188.506 207.582C189.222 207.183 190.013 206.937 190.828 206.861L192.428 206.71C194.445 206.521 196.224 205.311 197.14 203.504L201.312 195.277C201.598 194.712 201.792 194.104 201.885 193.477L204.764 174.136C205.303 170.515 210.515 170.488 211.092 174.103C211.654 177.627 216.692 177.727 217.393 174.227L219.632 163.044C219.854 161.935 220.428 160.926 221.27 160.17L224.784 157.011C225.611 156.267 226.212 155.305 226.515 154.236L231.967 135.058C232.073 134.684 232.216 134.322 232.394 133.976L233.796 131.246C235.811 127.324 241.261 126.917 243.837 130.496L244.28 131.112L245.547 132.734C247.958 135.822 252.654 135.746 254.964 132.583L256.432 130.573L261.691 124.398C262.23 123.765 262.63 123.024 262.863 122.226L264.989 114.94C266.033 111.362 271.107 111.371 272.138 114.953L272.424 115.944C273.242 118.785 277.097 119.2 278.501 116.597C279.588 114.581 282.349 114.258 283.872 115.97L286.815 119.276L292.891 127.249L296.731 133.999C297.996 136.222 300.752 137.105 303.073 136.031C304.329 135.451 305.771 135.425 307.046 135.961L309.454 136.973C310.54 137.43 311.465 138.202 312.109 139.188L314.599 143.004C316.115 145.328 319.047 146.281 321.641 145.294L323.273 144.673L325.04 144.103C327.582 143.284 330.358 144.274 331.808 146.517L334.698 150.99C335.178 151.732 335.484 152.573 335.596 153.449L337.426 167.872C338.069 172.941 345.391 173.002 346.119 167.945L346.288 166.77C346.774 163.394 351.069 162.245 353.176 164.927C353.493 165.33 353.726 165.792 353.863 166.286L358.384 182.592C359.081 185.106 361.907 186.351 364.233 185.169C365.239 184.657 365.992 183.756 366.317 182.675L371.74 164.604C371.837 164.281 371.961 163.968 372.111 163.667L377.697 152.465C377.873 152.112 378.084 151.777 378.327 151.466L381.804 147.016C383.174 145.262 385.415 144.428 387.599 144.859L388.785 145.094C389.66 145.267 390.485 145.636 391.197 146.174L393.02 147.55C394.937 148.998 397.54 149.139 399.602 147.908L401.119 147.002C401.875 146.551 402.52 145.936 403.008 145.203L408.344 137.179L412.194 130.034C413.497 127.616 416.297 126.417 418.947 127.142L419.403 127.266C420.126 127.464 420.879 127.523 421.624 127.438L424.644 127.097C425.897 126.955 427.163 127.218 428.256 127.848L431.915 129.958C432.402 130.239 432.847 130.588 433.235 130.995L438.726 136.745L442.604 140.402C443.975 141.695 445.908 142.204 447.738 141.756C449.68 141.28 451.727 141.884 453.099 143.337L455.728 146.12C456.528 146.968 457.06 148.034 457.255 149.183L460.302 167.101C460.979 171.086 466.571 171.435 467.739 167.565C468.443 165.231 471.123 164.142 473.257 165.323L473.644 165.537C474.629 166.083 475.353 167.003 475.652 168.089L480.2 184.637C480.782 186.758 482.993 187.988 485.104 187.366C486.481 186.959 487.528 185.833 487.833 184.43L488.946 179.303C490.119 173.913 497.714 173.66 499.241 178.96C499.406 179.534 499.668 180.076 500.012 180.563L502.723 184.383C504.348 186.672 507.423 187.392 509.895 186.063C511.027 185.455 511.912 184.474 512.402 183.287L517.719 170.407L523.796 156.533L529.35 146.665C529.696 146.049 530.15 145.501 530.689 145.046L535.582 140.924C535.826 140.718 536.054 140.492 536.263 140.249L539.821 136.093C541.165 134.522 543.299 133.875 545.29 134.435C547.041 134.928 548.922 134.49 550.275 133.274L553.48 130.396C553.942 129.98 554.338 129.494 554.649 128.955L559.992 119.693C560.167 119.389 560.369 119.102 560.596 118.834L566.332 112.042" stroke="white" stroke-width="2.07285"/>
</g>
<circle cx="237.766" cy="142.314" r="20.8466" fill="#93BC63" stroke="#212121" stroke-width="1.86686"/>
<path d="M241.767 138.062L241.249 140.037H231.724L232.236 138.062H241.767ZM236.817 149L231.959 143.219L231.966 141.443H234.366C234.902 141.443 235.349 141.344 235.709 141.145C236.069 140.946 236.339 140.676 236.518 140.335C236.698 139.994 236.791 139.606 236.795 139.17C236.791 138.517 236.599 137.984 236.22 137.572C235.846 137.156 235.228 136.947 234.366 136.947H231.724L232.307 134.455H234.366C235.574 134.455 236.58 134.637 237.385 135.001C238.195 135.361 238.801 135.875 239.203 136.543C239.61 137.21 239.816 138.006 239.821 138.929C239.816 139.748 239.679 140.463 239.409 141.074C239.144 141.685 238.725 142.194 238.152 142.601C237.584 143.008 236.843 143.311 235.929 143.51L235.815 143.553L240.162 148.872V149H236.817ZM241.781 134.455L241.249 136.457H233.408L233.94 134.455H241.781Z" fill="black"/>
</g>
</g>
<defs>
<linearGradient id="paint0_linear_1_621" x1="135.71" y1="270.61" x2="-19.0363" y2="270.61" gradientUnits="userSpaceOnUse">
<stop stop-color="#7B7E8A"/>
<stop offset="0.959103" stop-color="#7B7E8A" stop-opacity="0"/>
</linearGradient>
<linearGradient id="paint1_linear_1_621" x1="194.203" y1="122.401" x2="194.203" y2="247.481" gradientUnits="userSpaceOnUse">
<stop stop-color="white"/>
<stop offset="1" stop-color="white" stop-opacity="0"/>
</linearGradient>
<linearGradient id="paint2_linear_1_621" x1="194.204" y1="132.98" x2="194.204" y2="237.213" gradientUnits="userSpaceOnUse">
<stop stop-color="white"/>
<stop offset="1" stop-color="white" stop-opacity="0"/>
</linearGradient>
<clipPath id="clip0_1_621">
<rect width="327" height="320" rx="20" fill="white"/>
</clipPath>
<clipPath id="clip1_1_621">
<rect width="313" height="165.828" fill="white" transform="translate(-18 111)"/>
</clipPath>
</defs>
</svg>
