<svg width="504" height="560" viewBox="0 0 504 560" fill="none" xmlns="http://www.w3.org/2000/svg">
<g clip-path="url(#clip0_6_936)">
<rect width="504" height="560" rx="40" fill="#EFECE6"/>
<g clip-path="url(#clip1_6_936)">
<path opacity="0.5" d="M-1293.53 305.618L-1290.68 321.951C-1289.01 331.553 -1275.39 332.015 -1273.07 322.549C-1270.75 312.715 -1256.63 313.071 -1254.8 323.009L-1252.81 333.856C-1252.67 334.586 -1252.46 335.298 -1252.17 335.979L-1244.65 353.503C-1243.3 356.637 -1240.05 358.514 -1236.67 358.117C-1233.88 357.79 -1231.49 355.973 -1230.43 353.374L-1221.91 332.503L-1211.89 297.608C-1211.75 297.12 -1211.58 296.645 -1211.36 296.185L-1204.82 282.006C-1202.99 278.041 -1198.21 276.414 -1194.34 278.435C-1192.36 279.468 -1190.93 281.313 -1190.43 283.487L-1181.72 321.143C-1181.25 323.178 -1180.14 325.013 -1178.57 326.387L-1171.72 332.365C-1171.08 332.923 -1170.52 333.56 -1170.04 334.26L-1161.85 346.298C-1160.98 347.575 -1159.83 348.631 -1158.48 349.384L-1153.62 352.098C-1151.57 353.242 -1149.06 353.178 -1147.08 351.933C-1143.52 349.708 -1138.83 351.426 -1137.54 355.418L-1129.84 379.476L-1120.69 400.638C-1119.98 402.284 -1118.84 403.707 -1117.38 404.756L-1109.97 410.102C-1109.57 410.388 -1109.16 410.645 -1108.72 410.87L-1102.69 413.988C-1100.41 415.165 -1098.68 417.176 -1097.85 419.601L-1097.37 421.029C-1094.41 429.675 -1082.33 430.086 -1078.8 421.661L-1078.68 421.383L-1068.45 395.108L-1064.38 379.517C-1062.81 373.51 -1054.23 373.656 -1052.87 379.714C-1051.54 385.635 -1043.22 385.96 -1041.43 380.16L-1038.38 370.27C-1037.97 368.952 -1037.23 367.764 -1036.22 366.825L-1034.21 364.961C-1031.04 362.006 -1025.88 363.242 -1024.39 367.316C-1022.31 372.998 -1014.1 372.465 -1012.77 366.562L-1011.74 361.964C-1010.37 355.891 -1001.93 355.355 -999.802 361.206C-998.345 365.219 -993.376 366.612 -990.044 363.941L-986.603 361.18L-978.306 352.553C-977.04 351.237 -976.163 349.597 -975.768 347.815L-966.511 306.015C-966.265 304.908 -965.825 303.853 -965.212 302.9L-963.364 300.033C-960.108 294.985 -952.579 295.468 -949.996 300.891L-948.329 304.391C-946.995 307.194 -943.358 307.96 -941.006 305.934C-938.406 303.695 -934.365 304.899 -933.411 308.194L-925.564 335.35C-925.332 336.148 -925.004 336.915 -924.58 337.631L-916.171 351.922C-915.392 353.248 -914.316 354.374 -913.027 355.212L-907.201 359.002C-905.604 360.04 -904.339 361.515 -903.557 363.251L-894.525 383.309L-884.744 400.188C-884.446 400.707 -884.191 401.252 -883.988 401.817L-874.469 428.39C-874.197 429.143 -873.84 429.86 -873.396 430.527L-866.019 441.658C-864.615 443.779 -862.449 445.28 -859.968 445.852L-858.924 446.092C-855.635 446.849 -853.019 449.327 -852.081 452.566C-849.504 461.451 -836.944 461.536 -834.251 452.686L-833.138 449.028L-832.777 448.181C-829.306 439.983 -817.554 440.384 -814.646 448.8L-814.318 449.749C-813.314 452.663 -810.741 454.753 -807.68 455.141C-804.497 455.545 -801.377 454.032 -799.721 451.284L-794.279 442.245C-792.954 440.046 -790.831 438.445 -788.353 437.777L-781.984 436.061L-773.213 433.382C-772.246 433.087 -771.239 432.94 -770.225 432.949L-766.992 432.976C-763.587 433.004 -760.404 431.285 -758.556 428.421L-756.4 425.071C-753.601 420.727 -747.768 419.546 -743.498 422.457C-741.912 423.539 -740.027 424.097 -738.106 424.052L-736.632 424.017C-733.048 423.933 -729.785 421.924 -728.096 418.759L-724.025 411.126C-721.985 407.299 -717.699 405.238 -713.433 406.034L-711.747 406.349C-710.833 406.52 -709.945 406.819 -709.11 407.237L-700.134 411.745L-692.347 416.289C-690.75 417.22 -688.925 417.687 -687.08 417.639L-684.089 417.561C-681.277 417.488 -678.568 418.61 -676.63 420.648L-671.788 425.743C-670.267 427.341 -668.26 428.388 -666.08 428.72L-662.179 429.313C-660.244 429.608 -658.439 430.468 -656.992 431.785L-648.979 439.067L-639.834 445.732C-639.115 446.256 -638.469 446.875 -637.913 447.571L-629.397 458.261C-628.814 458.992 -628.337 459.801 -627.983 460.665L-619.53 481.172C-618.722 483.127 -617.314 484.774 -615.505 485.873L-610.809 488.731C-609.02 489.82 -607.622 491.446 -606.811 493.379L-606.281 494.64C-602.985 502.511 -591.952 502.835 -588.196 495.173L-587.957 494.685C-587.715 494.195 -587.517 493.686 -587.361 493.164L-583.714 480.998C-581.657 474.14 -572.071 473.801 -569.538 480.498C-568.173 484.102 -564.294 486.082 -560.575 485.075L-556.901 484.079L-546.67 480.012L-536.441 474.907L-526.209 468.065L-519.328 464.692C-517.168 463.634 -514.698 463.394 -512.375 464.018L-508.185 465.144C-506.585 465.574 -504.903 465.597 -503.292 465.211L-498.862 464.151C-496.695 463.632 -494.764 462.399 -493.382 460.651L-488.23 454.137C-486.367 451.783 -483.54 450.396 -480.538 450.365L-478.722 450.346C-476.355 450.322 -474.074 449.453 -472.29 447.897L-465.531 441.998C-465.06 441.587 -464.551 441.221 -464.011 440.906L-461.076 439.19C-457.239 436.948 -452.381 437.525 -449.177 440.603L-446.031 443.625C-444.933 444.68 -443.606 445.469 -442.154 445.93L-434.823 448.258C-434.362 448.404 -433.912 448.584 -433.477 448.796L-427.931 451.497C-425.368 452.746 -422.391 452.834 -419.759 451.738L-419.39 451.585C-415.919 450.139 -411.921 450.901 -409.225 453.522L-407.231 455.46C-405.049 457.581 -401.645 457.791 -399.219 455.955C-396.112 453.604 -391.631 454.691 -389.946 458.204L-384.064 470.466C-383.35 471.955 -382.275 473.243 -380.937 474.213L-377.878 476.431C-374.747 478.7 -370.584 478.948 -367.207 477.065L-364.34 475.468C-363.136 474.796 -361.804 474.383 -360.431 474.254L-357.738 474.001C-354.342 473.682 -351.347 471.644 -349.805 468.602L-342.78 454.751C-342.298 453.799 -341.971 452.776 -341.814 451.72L-336.968 419.154C-336.061 413.058 -327.284 413.012 -326.313 419.099C-325.366 425.034 -316.883 425.201 -315.704 419.308L-311.935 400.479C-311.561 398.611 -310.593 396.914 -309.176 395.64L-303.259 390.321C-301.867 389.069 -300.856 387.45 -300.344 385.649L-291.166 353.36C-290.987 352.73 -290.746 352.119 -290.447 351.537L-288.086 346.942C-284.693 340.337 -275.518 339.651 -271.181 345.678L-270.435 346.715L-268.301 349.447C-264.241 354.645 -256.335 354.518 -252.445 349.192L-249.973 345.807L-241.119 335.411C-240.211 334.344 -239.539 333.098 -239.146 331.753L-235.566 319.486C-233.808 313.462 -225.266 313.477 -223.529 319.508L-223.048 321.176C-221.67 325.961 -215.18 326.658 -212.816 322.276C-210.985 318.882 -206.337 318.339 -203.773 321.22L-198.818 326.788L-188.587 340.211L-182.122 351.576C-179.993 355.319 -175.351 356.806 -171.443 354.998C-169.33 354.02 -166.902 353.977 -164.755 354.88L-160.701 356.584C-158.872 357.353 -157.315 358.652 -156.23 360.314L-152.038 366.738C-149.484 370.651 -144.548 372.256 -140.181 370.594L-137.432 369.547L-134.459 368.589C-130.178 367.209 -125.504 368.876 -123.063 372.653L-118.197 380.184C-117.389 381.434 -116.873 382.849 -116.686 384.324L-113.604 408.609C-112.521 417.142 -100.193 417.246 -98.9672 408.732L-98.682 406.752C-97.8635 401.068 -90.6331 399.134 -87.0854 403.65C-86.5521 404.328 -86.1586 405.107 -85.9277 405.939L-78.3172 433.392C-77.1437 437.625 -72.3849 439.722 -68.4681 437.731C-66.7742 436.87 -65.5067 435.353 -64.9605 433.533L-55.8291 403.105C-55.6661 402.563 -55.4572 402.035 -55.2044 401.528L-45.7995 382.668C-45.5027 382.073 -45.1473 381.509 -44.7379 380.985L-38.8849 373.493C-36.5776 370.539 -32.8041 369.135 -29.1268 369.862L-27.1308 370.256C-25.6569 370.548 -24.2685 371.169 -23.0698 372.074L-19.9993 374.393C-16.7718 376.83 -12.3893 377.068 -8.91671 374.994L-6.36359 373.47C-5.09035 372.71 -4.00385 371.675 -3.18274 370.44L5.80141 356.93L12.2835 344.901C14.4779 340.829 19.1926 338.81 23.6546 340.031L24.4214 340.24C25.6383 340.574 26.9072 340.672 28.1609 340.53L33.2459 339.955C35.3558 339.716 37.487 340.16 39.3266 341.22L45.4881 344.773C46.3086 345.246 47.0571 345.834 47.7113 346.519L56.9566 356.2L63.4853 362.357C65.7937 364.533 69.048 365.391 72.1294 364.636C75.3983 363.835 78.8456 364.852 81.1563 367.299L85.5822 371.985C86.93 373.412 87.825 375.206 88.1539 377.141L93.2829 407.31C94.424 414.02 103.838 414.608 105.805 408.092C106.991 404.161 111.503 402.327 115.095 404.317L115.747 404.678C117.407 405.596 118.625 407.145 119.128 408.974L126.786 436.835C127.766 440.407 131.489 442.478 135.043 441.43C137.362 440.745 139.124 438.85 139.637 436.487L141.512 427.855C143.486 418.78 156.275 418.354 158.845 427.278C159.123 428.244 159.564 429.156 160.143 429.976L164.708 436.408C167.444 440.262 172.621 441.475 176.784 439.236C178.689 438.212 180.179 436.561 181.004 434.563L189.957 412.877L200.189 389.517L209.539 372.902C210.122 371.866 210.888 370.942 211.795 370.176L220.033 363.236C220.443 362.889 220.828 362.509 221.179 362.1L227.171 355.102C229.433 352.457 233.027 351.368 236.379 352.311C239.327 353.14 242.493 352.402 244.772 350.356L250.168 345.51C250.946 344.81 251.612 343.991 252.135 343.083L261.132 327.488C261.426 326.977 261.768 326.493 262.148 326.042L271.807 314.607" stroke="url(#paint0_linear_6_936)" stroke-width="2.61755"/>
<circle cx="326.291" cy="358.066" r="106.871" fill="#1D1D1D"/>
<circle cx="326.291" cy="358.066" r="106.347" stroke="url(#paint1_linear_6_936)" stroke-opacity="0.3" stroke-width="1.04775"/>
<circle cx="326.291" cy="358.066" r="89.0587" fill="black" fill-opacity="0.16"/>
<circle cx="326.291" cy="358.066" r="88.1862" stroke="url(#paint2_linear_6_936)" stroke-opacity="0.4" stroke-width="1.74503"/>
<mask id="mask0_6_936" style="mask-type:alpha" maskUnits="userSpaceOnUse" x="237" y="269" width="179" height="179">
<circle cx="326.291" cy="358.066" r="89.0587" fill="#212121"/>
</mask>
<g mask="url(#mask0_6_936)">
<path d="M-612.493 224.766L-609.645 241.099C-607.969 250.701 -594.352 251.163 -592.03 241.697C-589.708 231.863 -575.591 232.219 -573.763 242.157L-571.772 253.004C-571.636 253.733 -571.421 254.445 -571.13 255.127L-563.608 272.651C-562.263 275.785 -559.017 277.662 -555.628 277.265C-552.839 276.938 -550.448 275.121 -549.388 272.522L-540.875 251.651L-530.856 216.755C-530.717 216.268 -530.538 215.793 -530.326 215.332L-523.777 201.154C-521.949 197.189 -517.173 195.562 -513.301 197.583C-511.323 198.615 -509.896 200.461 -509.392 202.635L-500.678 240.291C-500.207 242.326 -499.104 244.161 -497.531 245.535L-490.684 251.513C-490.045 252.07 -489.479 252.707 -489.002 253.408L-480.811 265.446C-479.943 266.723 -478.79 267.779 -477.442 268.531L-472.58 271.246C-470.533 272.389 -468.025 272.326 -466.038 271.081C-462.484 268.856 -457.787 270.574 -456.505 274.566L-448.797 298.624L-439.652 319.786C-438.943 321.432 -437.801 322.855 -436.347 323.904L-428.934 329.25C-428.536 329.536 -428.119 329.793 -427.682 330.018L-421.653 333.135C-419.374 334.313 -417.642 336.324 -416.814 338.749L-416.327 340.177C-413.373 348.822 -401.296 349.233 -397.759 340.809L-397.643 340.531L-387.411 314.256L-383.34 298.665C-381.773 292.658 -373.191 292.804 -371.83 298.862C-370.499 304.783 -362.181 305.108 -360.393 299.308L-357.339 289.417C-356.935 288.1 -356.19 286.912 -355.179 285.972L-353.175 284.109C-350.002 281.153 -344.838 282.39 -343.348 286.464C-341.268 292.146 -333.06 291.613 -331.732 285.709L-330.698 281.112C-329.334 275.039 -320.887 274.503 -318.764 280.354C-317.307 284.367 -312.338 285.76 -309.006 283.089L-305.565 280.328L-297.267 271.701C-296.002 270.384 -295.124 268.745 -294.73 266.962L-285.472 225.163C-285.227 224.056 -284.787 223.001 -284.174 222.048L-282.326 219.181C-279.07 214.133 -271.541 214.616 -268.957 220.039L-267.291 223.539C-265.957 226.342 -262.32 227.108 -259.968 225.082C-257.368 222.843 -253.327 224.046 -252.373 227.342L-244.526 254.498C-244.294 255.296 -243.966 256.063 -243.542 256.779L-235.132 271.07C-234.354 272.396 -233.278 273.522 -231.989 274.36L-226.163 278.15C-224.566 279.188 -223.301 280.663 -222.519 282.399L-213.487 302.457L-203.706 319.336C-203.407 319.855 -203.152 320.4 -202.95 320.965L-193.431 347.538C-193.159 348.291 -192.802 349.008 -192.358 349.675L-184.981 360.806C-183.577 362.927 -181.411 364.428 -178.93 364.999L-177.886 365.24C-174.597 365.997 -171.981 368.474 -171.043 371.714C-168.466 380.599 -155.906 380.684 -153.213 371.834L-152.1 368.176L-151.739 367.329C-148.268 359.131 -136.516 359.532 -133.608 367.948L-133.28 368.897C-132.276 371.811 -129.703 373.901 -126.642 374.289C-123.459 374.693 -120.339 373.18 -118.683 370.432L-113.241 361.392C-111.916 359.194 -109.793 357.593 -107.315 356.925L-100.946 355.208L-92.1746 352.529C-91.2075 352.234 -90.2005 352.088 -89.187 352.097L-85.9542 352.123C-82.5492 352.152 -79.3661 350.433 -77.5178 347.569L-75.3615 344.218C-72.5627 339.874 -66.7297 338.693 -62.4602 341.605C-60.8736 342.687 -58.989 343.245 -57.0679 343.2L-55.5938 343.165C-52.0099 343.081 -48.7474 341.072 -47.0582 337.907L-42.9873 330.274C-40.9469 326.447 -36.6609 324.385 -32.3947 325.182L-30.7087 325.496C-29.7945 325.668 -28.9069 325.967 -28.0722 326.385L-19.0959 330.893L-11.3087 335.437C-9.71222 336.367 -7.88717 336.835 -6.04223 336.787L-3.05124 336.709C-0.239122 336.636 2.47028 337.757 4.40796 339.796L9.25055 344.89C10.7709 346.489 12.7782 347.536 14.9577 347.868L18.8595 348.461C20.7939 348.756 22.599 349.616 24.0465 350.933L32.0589 358.214L41.2041 364.879C41.9229 365.404 42.5688 366.022 43.1252 366.719L51.6411 377.409C52.224 378.14 52.701 378.949 53.0554 379.813L61.5083 400.32C62.3165 402.275 63.7242 403.922 65.5327 405.021L70.2295 407.879C72.0182 408.968 73.4159 410.594 74.2274 412.526L74.7574 413.788C78.0531 421.659 89.0863 421.983 92.8424 414.321L93.081 413.833C93.3228 413.343 93.5215 412.834 93.6772 412.312L97.324 400.146C99.3809 393.288 108.967 392.949 111.501 399.645C112.865 403.25 116.744 405.23 120.464 404.222L124.137 403.227L134.368 399.16L144.597 394.054L154.829 387.213L161.71 383.84C163.87 382.781 166.34 382.542 168.663 383.166L172.853 384.292C174.453 384.721 176.135 384.745 177.746 384.359L182.176 383.298C184.343 382.779 186.274 381.547 187.656 379.799L192.808 373.285C194.671 370.93 197.498 369.544 200.5 369.513L202.316 369.494C204.683 369.47 206.964 368.601 208.748 367.044L215.507 361.146C215.978 360.735 216.487 360.369 217.027 360.053L219.962 358.338C223.799 356.096 228.657 356.673 231.861 359.751L235.007 362.773C236.105 363.828 237.432 364.617 238.884 365.078L246.215 367.405C246.676 367.552 247.126 367.732 247.561 367.944L253.107 370.645C255.67 371.894 258.647 371.982 261.279 370.886L261.649 370.732C265.119 369.287 269.117 370.049 271.813 372.669L273.807 374.608C275.989 376.728 279.393 376.939 281.819 375.103C284.926 372.752 289.408 373.839 291.092 377.351L296.974 389.614C297.689 391.103 298.763 392.391 300.101 393.361L303.16 395.579C306.291 397.848 310.454 398.096 313.831 396.213L316.698 394.615C317.902 393.944 319.234 393.531 320.607 393.402L323.3 393.149C326.696 392.83 329.691 390.792 331.234 387.75L338.258 373.899C338.741 372.947 339.067 371.924 339.224 370.868L344.07 338.302C344.977 332.206 353.754 332.16 354.725 338.247C355.672 344.181 364.155 344.349 365.334 338.456L369.103 319.627C369.477 317.759 370.445 316.061 371.862 314.788L377.779 309.469C379.171 308.217 380.182 306.597 380.694 304.796L389.872 272.508C390.051 271.878 390.292 271.267 390.591 270.684L392.952 266.089C396.345 259.485 405.52 258.799 409.857 264.826L410.603 265.863L412.737 268.595C416.797 273.793 424.703 273.666 428.593 268.339L431.065 264.955L439.919 254.559C440.827 253.492 441.499 252.246 441.892 250.901L445.472 238.634C447.23 232.609 455.772 232.625 457.509 238.655L457.99 240.324C459.368 245.108 465.858 245.806 468.222 241.424C470.053 238.029 474.701 237.487 477.265 240.368L482.22 245.935L492.451 259.359L498.916 270.724C501.045 274.467 505.687 275.954 509.595 274.146C511.709 273.168 514.136 273.125 516.283 274.028L520.337 275.732C522.166 276.501 523.724 277.8 524.808 279.461L529 285.885C531.554 289.799 536.49 291.404 540.857 289.742L543.606 288.695L546.579 287.737C550.86 286.357 555.534 288.024 557.975 291.801L562.841 299.332C563.649 300.581 564.165 301.997 564.353 303.472L567.434 327.756C568.517 336.29 580.845 336.394 582.071 327.879L582.356 325.9C583.175 320.216 590.405 318.282 593.953 322.797C594.486 323.476 594.879 324.255 595.11 325.086L602.721 352.54C603.894 356.773 608.653 358.87 612.57 356.879C614.264 356.017 615.531 354.501 616.078 352.68L625.209 322.253C625.372 321.71 625.581 321.183 625.834 320.675L635.239 301.816C635.535 301.221 635.891 300.657 636.3 300.133L642.153 292.64C644.461 289.687 648.234 288.283 651.911 289.01L653.907 289.404C655.381 289.696 656.77 290.317 657.968 291.222L661.039 293.541C664.266 295.977 668.649 296.216 672.121 294.142L674.674 292.618C675.948 291.858 677.034 290.823 677.855 289.588L686.839 276.077L693.322 264.049C695.516 259.977 700.231 257.958 704.693 259.179L705.459 259.388C706.676 259.721 707.945 259.82 709.199 259.678L714.284 259.103C716.394 258.864 718.525 259.307 720.365 260.368L726.526 263.92C727.347 264.393 728.095 264.982 728.749 265.666L737.995 275.348L744.523 281.504C746.832 283.681 750.086 284.539 753.167 283.784C756.436 282.983 759.884 284 762.194 286.447L766.62 291.133C767.968 292.56 768.863 294.354 769.192 296.289L774.321 326.458C775.462 333.168 784.876 333.755 786.843 327.239C788.029 323.309 792.541 321.475 796.133 323.464L796.785 323.825C798.445 324.744 799.663 326.293 800.166 328.121L807.824 355.983C808.804 359.555 812.527 361.626 816.081 360.577C818.4 359.893 820.162 357.998 820.675 355.635L822.55 347.003C824.524 337.928 837.313 337.501 839.883 346.425C840.161 347.391 840.602 348.304 841.182 349.124L845.746 355.556C848.482 359.41 853.659 360.622 857.822 358.384C859.727 357.36 861.218 355.709 862.042 353.711L870.995 332.025L881.227 308.665L890.578 292.05C891.16 291.013 891.926 290.09 892.833 289.324L901.071 282.384C901.482 282.037 901.866 281.657 902.217 281.247L908.209 274.25C910.471 271.605 914.065 270.516 917.417 271.458C920.365 272.288 923.531 271.55 925.81 269.504L931.206 264.658C931.984 263.958 932.65 263.139 933.173 262.231L942.17 246.636C942.464 246.125 942.806 245.641 943.187 245.19L952.845 233.755" stroke="white" stroke-width="3.49007"/>
</g>
<circle cx="399.631" cy="284.724" r="35.0996" fill="#93BC63" stroke="#212121" stroke-width="3.14325"/>
<path d="M407.074 279.688L406.348 282.452H393.014L393.73 279.688H407.074ZM400.143 295L393.342 286.906L393.352 284.42H396.713C397.462 284.42 398.089 284.281 398.592 284.003C399.096 283.724 399.474 283.347 399.726 282.869C399.978 282.392 400.107 281.848 400.114 281.239C400.107 280.324 399.839 279.578 399.308 279.001C398.785 278.418 397.92 278.126 396.713 278.126H393.014L393.83 274.636H396.713C398.403 274.636 399.812 274.892 400.939 275.402C402.072 275.906 402.921 276.625 403.484 277.56C404.054 278.494 404.343 279.608 404.349 280.901C404.343 282.047 404.151 283.048 403.773 283.903C403.402 284.759 402.815 285.471 402.013 286.041C401.217 286.611 400.18 287.036 398.901 287.314L398.741 287.374L404.827 294.821V295H400.143ZM407.094 274.636L406.348 277.44H395.371L396.116 274.636H407.094Z" fill="black"/>
</g>
</g>
<defs>
<linearGradient id="paint0_linear_6_936" x1="227.801" y1="500.736" x2="-32.745" y2="500.736" gradientUnits="userSpaceOnUse">
<stop stop-color="#7B7E8A"/>
<stop offset="0.959103" stop-color="#7B7E8A" stop-opacity="0"/>
</linearGradient>
<linearGradient id="paint1_linear_6_936" x1="326.291" y1="251.196" x2="326.291" y2="461.793" gradientUnits="userSpaceOnUse">
<stop stop-color="white"/>
<stop offset="1" stop-color="white" stop-opacity="0"/>
</linearGradient>
<linearGradient id="paint2_linear_6_936" x1="326.291" y1="269.007" x2="326.291" y2="444.505" gradientUnits="userSpaceOnUse">
<stop stop-color="white"/>
<stop offset="1" stop-color="white" stop-opacity="0"/>
</linearGradient>
<clipPath id="clip0_6_936">
<rect width="504" height="560" rx="40" fill="white"/>
</clipPath>
<clipPath id="clip1_6_936">
<rect width="527" height="279.205" fill="white" transform="translate(-31 232)"/>
</clipPath>
</defs>
</svg>
